<?xml version="1.0" standalone="no"?>
<!DOCTYPE svg PUBLIC "-//W3C//DTD SVG 1.1//EN" "http://www.w3.org/Graphics/SVG/1.1/DTD/svg11.dtd" >
<!--
2013-9-30: Created.
-->
<svg>
<metadata>
Created by iconfont
</metadata>
<defs>

<font id="iconfont" horiz-adv-x="1024" >
  <font-face
    font-family="iconfont"
    font-weight="500"
    font-stretch="normal"
    units-per-em="1024"
    ascent="896"
    descent="-128"
  />
    <missing-glyph />
    
    <glyph glyph-name="Illustration-shuaka-50" unicode="&#59092;" d="M549.25312 734.49472l-116.736-148.04992h333.2096l-146.6368-146.41152-25.02656-24.9856a86.34368 86.34368 0 0 1-23.8592-44.7488 87.7568 87.7568 0 0 1 0-33.11616 86.87616 86.87616 0 0 1 146.67776-44.76928L983.01952 558.08V773.12h-354.0992a101.376 101.376 0 0 1-79.6672-38.62528zM655.50336 218.60352a135.168 135.168 0 0 0-95.72352 230.72768l25.02656 24.96512 61.80864 61.72672H113.70496a72.92928 72.92928 0 0 1-72.76544-72.68352v-395.81696a72.92928 72.92928 0 0 1 72.76544-72.66304h618.61888a72.92928 72.92928 0 0 1 72.76544 72.66304V311.9104l-53.88288-53.80096a134.49216 134.49216 0 0 0-95.70304-39.50592zM409.41568 464.71168h78.848a19.16928 19.16928 0 1 0 0-38.33856h-78.848a19.16928 19.16928 0 1 0 0 38.33856z m0-101.5808h60.66176a19.16928 19.16928 0 1 0 0-38.35904h-60.66176a19.16928 19.16928 0 1 0 0 38.35904z m0-101.5808h78.848a19.16928 19.16928 0 1 0 0-38.35904h-78.848a19.16928 19.16928 0 1 0 0 38.35904z m-202.752 68.38272a70.2464 70.2464 0 1 0 54.53824 0 110.36672 110.36672 0 0 0 81.6128-88.576 15.81056 15.81056 0 0 0-15.7696-18.16576H140.8a15.81056 15.81056 0 0 0-15.74912 18.16576 110.36672 110.36672 0 0 0 81.63328 88.576z m445.3376-241.2544H147.51744a19.16928 19.16928 0 1 0 0 38.35904h504.48384a19.16928 19.16928 0 1 0 0-38.35904z"  horiz-adv-x="1024" />

    
    <glyph glyph-name="Illustration-Server-50" unicode="&#59093;" d="M458.79296 448.83968l410.89024 240.08704v-549.2736L452.48512-100.39296zM153.35424 625.29536l312.34048-190.32064L874.7008 687.37024 563.15904 871.2192zM458.28096-107.49952a5.632 5.632 0 0 0-2.90816 0.79872L146.28864 76.24704A6.144 6.144 0 0 0 143.36 81.42848L144.87552 627.712a6.144 6.144 0 0 0 2.92864 5.18144 5.79584 5.79584 0 0 0 2.90816 0.77824 5.69344 5.69344 0 0 0 2.88768-0.79872l309.10464-182.96832a5.95968 5.95968 0 0 0 2.92864-5.18144l-1.51552-546.28352a6.144 6.144 0 0 0-2.90816-5.18144 5.71392 5.71392 0 0 0-2.92864-0.75776zM212.64384 208.11776a6.9632 6.9632 0 0 1-3.54304-0.9216 7.84384 7.84384 0 0 1-3.50208-4.97664 24.064 24.064 0 0 1 3.52256-17.01888 21.07392 21.07392 0 0 1 15.5648-11.83744 7.0656 7.0656 0 0 1 3.54304 0.90112c5.26336 3.072 5.24288 12.94336 0 22.016a21.0944 21.0944 0 0 1-15.58528 11.83744z m0 59.74016a6.9632 6.9632 0 0 1-3.54304-0.9216 9.48224 9.48224 0 0 1-3.93216-8.74496 27.3408 27.3408 0 0 1 3.97312-13.27104 21.0944 21.0944 0 0 1 15.5648-11.83744 7.10656 7.10656 0 0 1 3.54304 0.9216c5.24288 3.05152 5.24288 12.92288 0 22.016a21.0944 21.0944 0 0 1-15.60576 11.83744z m0 59.74016a6.94272 6.94272 0 0 1-3.54304-0.90112 7.84384 7.84384 0 0 1-3.50208-4.97664 24.064 24.064 0 0 1 3.52256-17.01888 21.0944 21.0944 0 0 1 15.5648-11.83744 7.10656 7.10656 0 0 1 3.54304 0.9216c5.26336 3.05152 5.24288 12.92288 0 21.99552a21.11488 21.11488 0 0 1-15.60576 11.79648z m-4.38272 121.18016v-20.66432l191.91808-110.81728 1.55648 19.78368z m0 71.68v-20.64384l191.91808-110.81728 1.55648 19.78368zM452.8128-105.94304a5.91872 5.91872 0 0 0-2.94912 5.18144l1.55648 542.72L147.8656 620.25728a5.95968 5.95968 0 0 0-2.94912 5.12 6.144 6.144 0 0 0 2.94912 5.18144L561.152 874.74176a6.00064 6.00064 0 0 0 5.91872 0l308.38784-181.02272a5.79584 5.79584 0 0 0 2.23232-0.79872 5.85728 5.85728 0 0 0 2.94912-5.16096v-0.512l-1.49504-543.80544a6.144 6.144 0 0 0-2.94912-5.14048L458.77248-105.94304a5.85728 5.85728 0 0 0-5.95968 0z m8.92928 15.5648l405.504 237.24032 1.49504 529.89952-404.33664-238.83776a6.59456 6.59456 0 0 0-1.16736-0.53248zM162.52928 625.37728l296.40704-173.93664 403.57888 236.11392-298.3936 175.104zM720.1792 145.92l95.62112 55.82848v-11.93984l-95.62112-55.82848z m0 47.77984l95.62112 55.82848v-11.93984l-95.62112-55.82848z m0 47.8208l95.62112 55.76704v-11.91936l-95.62112-55.78752z"  horiz-adv-x="1024" />

    
    <glyph glyph-name="Illustration-Nodata-50" unicode="&#59094;" d="M147.90656-50.688c0-20.11136 156.07808-36.41344 348.61056-36.41344s348.61056 16.384 348.61056 36.41344-156.07808 36.41344-348.61056 36.41344-348.61056-16.384-348.61056-36.41344zM235.29472 855.08096h551.58784v-247.58272H235.29472zM234.94656 855.08096L60.53888 456.51968v-354.304l174.40768 501.90336zM787.2512 604.11904V855.08096l174.40768-398.56128v-354.304zM234.94656 607.49824H787.2512l174.40768-500.89984h-901.12zM961.65888 105.51296h-901.12V455.02464H423.936a86.85568 86.85568 0 0 1 87.16288-84.62336 86.85568 86.85568 0 0 1 87.16288 84.62336h363.39712v-349.4912z"  horiz-adv-x="1024" />

    
    <glyph glyph-name="Illustration-Visitor-50" unicode="&#59095;" d="M759.95136-87.04l-29.61408 138.52672 135.96672 29.04064L902.12352-87.04zM133.12-87.04l35.9424 168.16128 135.94624-29.04064L275.31264-87.04zM313.61024-87.04v179.73248l-8.02816-40.71424-135.92576 29.10208 35.10272 163.84a69.38624 69.38624 0 0 0 67.97312 54.80448h490.61888a69.38624 69.38624 0 0 0 67.97312-54.82496l35.10272-163.84-135.92576-29.0816-8.02816 40.69376V-87.04zM866.4064 81.08032l-135.92576-29.10208-6.32832 32.09216 135.41376 28.99968zM169.65632 81.08032l135.92576-29.10208 6.32832 32.09216-135.41376 28.99968zM681.59488 606.47424h16.384a24.576 24.576 0 0 0 24.576-24.576v-73.58464a24.576 24.576 0 0 0-24.576-24.576h-16.384zM354.48832 483.79904h-16.384a24.576 24.576 0 0 0-24.576 24.576v73.54368a24.576 24.576 0 0 0 24.576 24.576h16.384v-122.69568zM518.06208 189.44a110.592 110.592 0 0 1 110.3872 110.3872h-220.7744a110.592 110.592 0 0 1 110.3872-110.3872zM448.512 348.89728h138.99776v-49.152a69.50912 69.50912 0 1 0-138.99776 0zM448.512 306.64704a104.16128 104.16128 0 0 1 138.99776 0v48.76288H448.512zM354.46784 673.05472h327.08608v-193.3312a163.55328 163.55328 0 1 0-327.08608 0zM518.0416 835.42016a179.89632 179.89632 0 0 1-179.89632-179.89632v-49.152h16.0768l0.26624-122.65472 32.768 122.65472h261.65248l32.768-122.65472-0.26624 122.65472h16.62976v49.152a179.89632 179.89632 0 0 1-179.99872 179.89632z"  horiz-adv-x="1024" />

    
    <glyph glyph-name="Illustration-Tenant-50" unicode="&#59096;" d="M742.27712-84.50048H107.08992a217.66144 217.66144 0 0 0-25.06752 0V35.84c-0.02048 157.16352 101.21216 285.04064 225.64864 285.04064h234.00448c124.43648 0 225.66912-127.87712 225.66912-285.04064v-88.6784a28.95872 28.95872 0 0 0-25.06752-31.66208zM544.48128 320.88064h-117.00224v-320.94208h317.60384a25.06752 25.06752 0 0 1 25.06752 25.06752v70.20544a225.91488 225.91488 0 0 1-225.66912 225.66912zM426.25024 170.14784a91.93472 91.93472 0 0 0-91.93472 91.93472v142.09024h183.86944v-142.09024a91.93472 91.93472 0 0 0-91.93472-91.93472zM225.91488-87.01952H198.08256v175.80032h27.83232zM334.31552 313.11872a158.26944 158.26944 0 0 1 183.88992 0v54.00576h-183.88992zM650.30144 580.608H199.0656a25.06752 25.06752 0 0 0-25.06752 25.23136 250.6752 250.6752 0 0 0 501.32992 0 25.06752 25.06752 0 0 0-25.02656-25.23136zM652.63616 580.608a25.06752 25.06752 0 0 1 25.06752 25.23136A250.69568 250.69568 0 0 1 427.04896 855.04v-274.432zM598.71232 601.64096h23.9616a32.48128 32.48128 0 0 0 35.92192-27.17696v-81.53088a32.48128 32.48128 0 0 0-35.92192-27.17696h-23.9616zM255.40608 465.73568h-24.92416c-20.64384 0-37.376 12.16512-37.376 27.17696v81.53088c0 15.01184 16.73216 27.17696 37.376 27.17696h24.92416v-135.8848zM424.93952 320.34816a193.59744 193.59744 0 0 0-191.09888 194.33472v106.496h83.968a95.58016 95.58016 0 0 1 85.72928 52.92032 25.10848 25.10848 0 0 0 29.7984 12.86144 25.64096 25.64096 0 0 0 15.33952-13.25056 95.35488 95.35488 0 0 1 85.52448-52.5312h83.968v-108.6464a192.512 192.512 0 0 0-193.2288-192.18432zM232.83712 601.53856l7.168-134.8608 32.60416 181.1456-51.6096-14.0288zM632.25856 601.53856l-19.39456-135.8848-20.31616 182.1696 51.6096-14.0288zM875.2128-87.04H616.12032v204.16512l142.09024 121.79456 142.11072-121.79456V-87.04zM782.4384-87.04h-50.15552v91.93472a25.06752 25.06752 0 1 0 50.15552 0zM774.10304 79.9744h-33.42336a25.06752 25.06752 0 1 0 0 50.15552h33.42336a25.06752 25.06752 0 0 0 0-50.15552zM916.992 77.59872a24.96512 24.96512 0 0 0-16.384 6.0416l-142.47936 122.12224-142.47936-122.12224a25.06752 25.06752 0 0 0-32.62464 38.07232l158.80192 136.11008a25.06752 25.06752 0 0 0 32.62464 0l158.80192-136.11008a25.06752 25.06752 0 0 0-16.384-44.11392z"  horiz-adv-x="1024" />

    
    <glyph glyph-name="Illustration-Staff-50" unicode="&#59097;" d="M636.17024 286.24896H387.82976l-156.71296-39.26016A115.13856 115.13856 0 0 1 143.36 135.65952v-222.67904h737.28V135.65952a115.13856 115.13856 0 0 1-87.7568 111.32928zM421.56032 94.86336l90.60352 86.30272 92.63104-86.15936 48.61952 186.49088-18.88256 4.79232H389.50912l-18.88256-4.79232zM743.54688 0.08192v259.6864l-106.496 26.50112v-183.76704L512-8.51968l-125.05088 111.02208v183.74656l-106.496-26.50112v-259.6864l-10.752-10.52672V-87.04h484.59776v76.57472zM596.19328 362.55744v-47.86176l-84.23424-107.19232-84.21376 107.19232v47.86176zM427.74528 328.13056a198.22592 198.22592 0 0 1 168.448 0v34.44736h-168.448zM686.1824 701.82912v-187.94496a174.20288 174.20288 0 1 0-348.38528 0V701.82912zM615.30112 701.21472s-15.83104-88.22784-242.05312-88.22784l-36.20864-83.70176V719.29856A135.74144 135.74144 0 0 0 472.7808 855.04h83.70176a58.81856 58.81856 0 0 0 58.81856-58.81856zM615.36256 701.21472s-4.7104-67.87072 49.39776-88.22784l23.53152-83.70176v196.8128a71.55712 71.55712 0 0 1-72.9088 70.12352zM334.9504 539.11552h-26.80832a19.1488 19.1488 0 0 0-19.1488 19.1488v55.5008a19.1488 19.1488 0 0 0 19.1488 19.1488h26.80832zM689.02912 632.91392h26.80832a19.1488 19.1488 0 0 0 19.1488-19.1488v-55.52128a19.1488 19.1488 0 0 0-19.1488-19.1488h-26.80832zM426.74176 314.6752l-38.27712-28.34432 42.10688-155.40224 80.40448 76.57472zM597.23776 314.6752l38.27712-28.34432-42.10688-155.40224-80.40448 76.55424zM250.55232-10.48576h19.1488v-76.57472h-19.1488zM754.31936-10.48576h19.1488v-76.57472h-19.1488zM512-8.54016l-9.56416 8.66304V-87.04h19.1488v87.16288zM561.99168-4.7104h153.12896v-38.27712h-153.12896zM512 100.70016h19.1488l33.1776 56.99584L512 207.52384l-52.3264-49.82784 33.1776-56.99584zM459.6736 157.63456l9.89184-16.9984 42.57792 40.5504 42.74176-39.75168 9.44128 16.22016L512 207.48288zM512-8.56064l40.18176 36.41344-21.11488 72.704h-38.27712l-21.03296-72.68352z"  horiz-adv-x="1024" />

    
    <glyph glyph-name="Illustration-Vendor-50" unicode="&#59098;" d="M119.43936-87.04V157.14304a116.30592 116.30592 0 0 0 97.93536 114.85184l23.22432 3.70688 157.4912 24.33024 38.76864-145.408L512 227.24608l75.10016-72.62208 38.74816 145.408 157.51168-24.24832 23.20384-3.70688a116.30592 116.30592 0 0 0 97.93536-114.85184V-87.04zM591.93344 372.61312v-46.03904l-79.872-99.34848-79.872 99.34848v46.03904zM432.78336 340.23424a186.368 186.368 0 0 1 158.37184 0v32.39936h-158.37184zM347.15648 709.4272v-193.86368a164.7616 164.7616 0 1 1 329.5232 0V709.4272zM700.94848 518.00064h-24.22784v96.93184h24.22784a24.22784 24.22784 0 0 0 24.22784-24.22784v-48.45568a24.22784 24.22784 0 0 0-24.22784-24.24832zM322.94912 518.00064h24.22784v96.93184h-24.22784a24.22784 24.22784 0 0 1-24.22784-24.22784v-48.45568a24.22784 24.22784 0 0 1 24.22784-24.24832zM759.13216-87.04v166.46144h24.22784V-87.04z m-222.37184 0l50.25792 241.664 38.78912 145.408 77.5168-111.45216-77.5168-159.90784 43.60192-43.6224L610.2016-87.04zM413.696-87.04l-59.20768 71.96672 43.60192 43.6224-77.57824 159.92832 77.55776 111.55456 38.76864-145.408L487.09632-87.04z m-173.11744 0v166.5024h24.22784V-87.04zM487.09632-87.04L436.8384 154.624 512 227.24608l75.12064-72.704L536.80128-87.04zM511.93856 140.02176h16.95744l20.7872 50.688-37.74464 36.53632-37.74464-36.53632 20.7872-50.688zM431.98464 326.57408l-33.91488-26.624 38.76864-145.408 75.12064 72.68352zM591.79008 326.57408l33.91488-26.624-38.76864-145.408-75.01824 72.68352zM548.27008 835.42016h-79.872a145.408 145.408 0 0 1-145.408-145.408v-75.12064h24.22784v-106.61888l34.816 106.61888h105.71776a96.91136 96.91136 0 0 1 96.91136 96.91136V799.06816a36.352 36.352 0 0 1-36.39296 36.352zM604.07808 799.08864h-19.39456v-87.22432a96.93184 96.93184 0 0 1 53.98528-86.89664l38.0928-116.736v106.7008h24.22784v87.2448a96.93184 96.93184 0 0 1-96.91136 96.91136zM487.09632-87.04l-11.4688 55.02976 19.39456 172.032h33.91488l19.39456-172.032L536.8832-87.04zM530.28864 127.91808l-1.37216 12.10368h-33.9968l-1.37216-12.10368z"  horiz-adv-x="1024" />

    
    <glyph glyph-name="Illustration-renlian-50" unicode="&#59099;" d="M629.26848 210.18624a883.63008 883.63008 0 0 0-2.23232 93.36832 197.26336 197.26336 0 0 1 75.8784 108.01152c12.288 1.14688 32.39936 13.47584 37.94944 63.01696a46.14144 46.14144 0 0 1-16.73216 46.14144c20.11136 61.87008 29.02016 255.42656-111.65696 274.6368a111.7184 111.7184 0 0 1-99.30752 38.25664c-192-3.39968-248.91392-148.56192-206.49984-313.93792a45.056 45.056 0 0 1-16.73216-46.14144c5.59104-49.54112 25.66144-61.87008 37.94944-63.01696a189.07136 189.07136 0 0 1 75.8784-108.01152 890.4704 890.4704 0 0 0-2.23232-93.3888C363.58144 105.61536 114.62656 159.58016 102.4-66.58048h826.01984c-6.69696 229.49888-261.34528 172.032-299.13088 276.74624z"  horiz-adv-x="1024" />

    
    <glyph glyph-name="Icon-Checkout-16" unicode="&#58999;" d="M1011.776 31.36H253.056V270.528h91.968v-146.368h574.72V804.032h-574.72v-147.2H253.056V896h758.72zM1001.152 42.112L623.552-128V719.744l377.6 170.112z m-459.904 346.88H185.6V564.096h355.392zM191.232 667.904L0 477.248l191.232-191.232"  horiz-adv-x="1024" />

    
    <glyph glyph-name="Icon-Camera-16" unicode="&#59000;" d="M1024.32192 419.392l-101.952 59.712h-3.328l-80.768 46.912-514.816 299.776a45.632 45.632 0 0 1-62.4-16.768L155.20192 625.92a45.824 45.824 0 0 1 17.28-63.104l265.728-153.6-128-257.344H103.10592V263.552a36.8 36.8 0 0 1-36.8 35.2H36.80192a36.8 36.8 0 0 1-36.8-36.864v-289.152a36.8 36.8 0 0 1 36.8-36.864h29.504a36.8 36.8 0 0 1 36.8 36.864v93.248h259.072l149.888 300.352 255.168-149.632a45.632 45.632 0 0 1 55.68 5.568z"  horiz-adv-x="1024" />

    
    <glyph glyph-name="Icon-Clock-16" unicode="&#59001;" d="M512.02624-127.99808A511.99232 511.99232 0 0 0 149.983671 746.036809a511.99232 511.99232 0 1 0 724.085138-724.085138A508.600371 508.600371 0 0 0 512.02624-127.99808zM483.098674 665.142023a47.99928 47.99928 0 0 1-47.935281-47.935281v-259.644105a47.99928 47.99928 0 0 1 47.935281-47.935281h166.781498v0.511992a47.935281 47.935281 0 1 1 0 95.99856H531.225952v211.196832a47.99928 47.99928 0 0 1-48.127278 47.807283z"  horiz-adv-x="1024" />

    
    <glyph glyph-name="Icon-Delete1616" unicode="&#59002;" d="M512 832a448 448 0 1 1 448-448 448 448 0 0 1-448 448z m194.176-590.72a35.712 35.712 0 0 0 10.624-25.6 36.224 36.224 0 0 0-61.888-25.6L512 332.8l-142.912-142.72a36.224 36.224 0 1 0-51.2 51.2L460.8 384 317.824 526.848a35.712 35.712 0 0 0-10.624 25.6 36.288 36.288 0 0 0 10.624 25.6 36.224 36.224 0 0 0 51.2 0L512 435.2l142.912 142.72a36.288 36.288 0 0 0 61.888-25.6 36.288 36.288 0 0 0-10.624-25.6L563.2 384z"  horiz-adv-x="1024" />

    
    <glyph glyph-name="Icon-Department-16" unicode="&#59003;" d="M908.416 642.24L554.112 822.016a91.584 91.584 0 0 1-83.2 0L116.608 642.24A94.528 94.528 0 0 1 64 557.824v-621.952h290.624V309.248h315.84v-373.376H960V557.824a94.528 94.528 0 0 1-51.584 84.288z"  horiz-adv-x="1024" />

    
    <glyph glyph-name="Icon-Door-16" unicode="&#59004;" d="M883.392 896H191.808a64.64 64.64 0 0 1-46.144-19.2 61.056 61.056 0 0 1-17.6-45.696v-894.272a61.056 61.056 0 0 1 17.6-45.696 64.64 64.64 0 0 1 46.144-19.2h691.52a64.64 64.64 0 0 1 46.144 19.2 61.056 61.056 0 0 1 17.6 45.696V831.168a61.056 61.056 0 0 1-17.6 45.696 64.64 64.64 0 0 1-46.08 19.136z m-128-563.2a73.664 73.664 0 0 0-67.456 45.568 70.4 70.4 0 0 0 17.792 77.952 75.328 75.328 0 0 0 80.96 13.568 71.552 71.552 0 0 0 43.584-67.712 70.4 70.4 0 0 0-21.824-51.2 74.816 74.816 0 0 0-53.12-20.8z"  horiz-adv-x="1024" />

    
    <glyph glyph-name="Icon-Location-16" unicode="&#59005;" d="M512 895.6801a387.718838 387.718838 0 0 1-383.880037-391.429678c0-331.160512 383.880037-632.250422 383.880037-632.250422s383.880037 301.089909 383.880037 632.250422A387.718838 387.718838 0 0 1 512 895.6801z m0-538.199813a146.834114 146.834114 0 1 0 143.955014 146.770135A145.362574 145.362574 0 0 0 512 357.800187z"  horiz-adv-x="1024" />

    
    <glyph glyph-name="Icon-Checkin-16" unicode="&#59006;" d="M1026.048 33.024H269.504V271.616h92.032v-146.624h572.992V803.968H361.536v-146.624H269.504V895.936h756.544v-862.976zM1015.808 42.496L639.552-128V719.616L1015.808 890.112v-847.616zM64 563.584h354.304v-174.784H64zM415.552 667.392l190.464-190.464-190.464-190.464"  horiz-adv-x="1026" />

    
    <glyph glyph-name="Icon-AccessCode-16" unicode="&#59007;" d="M648.072949 8.38833a189.421128 189.421128 0 0 0 129.671269 236.120697V575.756107h108.752421v-46.187793h88.601237V421.711501h-88.601237v-23.477728h88.601237v-107.856813h-88.601237v-45.803961a191.084401 191.084401 0 0 0 129.415381-128.647716 189.613044 189.613044 0 0 0-129.415381-236.120698 191.404261 191.404261 0 0 0-54.120323-7.612669 191.916037 191.916037 0 0 0-184.303367 136.196414z m100.947836 52.968826a83.163616 83.163616 0 0 1 83.163615-82.523896 83.163616 83.163616 0 0 1 83.163616 82.523896 82.779784 82.779784 0 0 1-83.163616 82.459924 82.587868 82.587868 0 0 1-83.163615-82.459924zM0.228381 63.980009a392.596239 392.596239 0 0 0 279.237834 378.458424A238.807522 238.807522 0 0 0 174.616087 550.295246a246.292247 246.292247 0 0 0-11.770851 182.768039A234.457425 234.457425 0 0 0 279.402243 870.411195a221.215218 221.215218 0 0 0 102.803023 25.588805 229.53158 229.53158 0 0 0 207.397264-133.189729 243.477479 243.477479 0 0 0 12.09071-182.384207A233.945649 233.945649 0 0 0 485.136234 442.694321 379.801837 379.801837 0 0 0 639.948504 352.237896v-81.308428a289.857187 289.857187 0 0 1-124.93734-206.629599z"  horiz-adv-x="1024" />

    
    <glyph glyph-name="Icon-Filter-16" unicode="&#59008;" d="M459.776 64c-19.52 0-39.296 14.848-39.296 48.064V395.968L207.296 631.744a61.248 61.248 0 0 0-13.12 21.056 37.312 37.312 0 0 0 0.832 27.648 37.248 37.248 0 0 0 19.712 19.2A61.056 61.056 0 0 0 239.296 704h545.408a61.056 61.056 0 0 0 24.576-4.608 37.248 37.248 0 0 0 19.712-19.2 37.312 37.312 0 0 0 0.832-27.392 61.248 61.248 0 0 0-12.8-21.312l-213.568-235.52v-170.816a132.032 132.032 0 0 0-43.648-92.608l-66.56-54.848a52.8 52.8 0 0 0-33.472-13.696z"  horiz-adv-x="1024" />

    
    <glyph glyph-name="Icon-sortby-16" unicode="&#59009;" d="M192 310.528h640L512 0z m0 147.2L512 768l320-310.464z"  horiz-adv-x="1024" />

    
    <glyph glyph-name="Icon-Reader-16" unicode="&#59010;" d="M796.574207 895.878414H228.12971a95.220693 95.220693 0 0 1-99.764153-89.589361v-844.187753a95.220693 95.220693 0 0 1 99.764153-89.589361h568.444497a95.1567 95.1567 0 0 1 99.70016 89.589361V806.033084A95.1567 95.1567 0 0 1 796.574207 895.878414z m-462.025135-925.074147a218.406064 218.406064 0 0 0-0.703916 242.531199l39.931258-21.181484a180.010624 180.010624 0 0 1 0.575932-199.976253z m74.039208 53.817609a117.234078 117.234078 0 0 0-0.383954 130.224536l39.931258-21.181485a78.90263 78.90263 0 0 1 0-87.733581z m207.463364 0l-39.803273 21.373462a79.030615 79.030615 0 0 1 0 87.733582l39.99525 21.181484a117.106094 117.106094 0 0 0-0.447947-130.224535z m74.039208-53.817609l-39.803274 21.373462a180.266593 180.266593 0 0 1 0.575932 199.976253l39.931258 21.181484a218.534049 218.534049 0 0 0-0.767909-242.531199z m96.50054 332.312538H238.112524V797.074147h548.478868z"  horiz-adv-x="1024" />

    
    <glyph glyph-name="Icon-User-16" unicode="&#59011;" d="M629.312 320.064a29.952 29.952 0 0 0-20.48 5.312 171.584 171.584 0 0 0-15.36 47.616v21.184a373.696 373.696 0 0 1 96.832 190.016C690.304 721.344 608.832 832 506.816 832S322.944 721.344 322.944 584.192a323.2 323.2 0 0 1 96.832-195.328v-10.56a87.424 87.424 0 0 0-15.36-47.616 29.952 29.952 0 0 1-20.48-5.312c-256-126.528-256-132.288-256-220.48 0-116.416 173.632-168.896 384-168.896s384 57.6 384 168.896c0 88.192 0 88.192-265.344 216.064z"  horiz-adv-x="1024" />

    
    <glyph glyph-name="Icon-Server-16" unicode="&#59012;" d="M968.97792 832H55.05792a56.192 56.192 0 0 1-55.04-57.6v-119.04a56.192 56.192 0 0 1 55.04-57.6h913.92a56.192 56.192 0 0 1 55.04 57.6V774.4a56.192 56.192 0 0 1-55.04 57.6z m-90.88-164.672a46.4 46.4 0 0 0-45.376 46.464 45.44 45.44 0 1 0 90.816 3.52 48.512 48.512 0 0 0-12.352-35.2 44.8 44.8 0 0 0-33.088-14.784z m90.88-166.4H55.05792a56.192 56.192 0 0 1-55.04-57.6v-118.656a56.192 56.192 0 0 1 55.04-57.6h913.92a56.192 56.192 0 0 1 55.04 57.6V443.328a56.192 56.192 0 0 1-55.04 57.344zM878.09792 336a47.04 47.04 0 1 1 0 0.64z m90.88-166.4H55.05792a56.192 56.192 0 0 1-55.04-57.6v-118.4a56.192 56.192 0 0 1 55.04-57.6h913.92a56.192 56.192 0 0 1 55.04 57.6v119.104a56.192 56.192 0 0 1-55.04 56.64z m-90.88-164.672a47.04 47.04 0 1 1 0 0.64z"  horiz-adv-x="1024" />

    
    <glyph glyph-name="Icon-AddNext-24" unicode="&#59013;" d="M618.666667 0H324.266667v121.130667H123.050667v339.328H42.666667V768h570.965333v-307.456H212.096v-249.898667h112v97.024h294.4v-89.6H413.184v-128.768h205.354667V0zM132.266667 678.4l-0.469334-128.768h394.88V678.4zM768-0.085333v128h-128v85.333333h128v128h85.333333v-128h128v-85.333333h-128v-128z"  horiz-adv-x="1024" />

    
    <glyph glyph-name="Icon-AddAC-1" unicode="&#59014;" d="M521.344-42.666667h-4.565333a32.64 32.64 0 0 0-12.416 3.114667C211.029333 103.210667 174.762667 222.677333 170.666667 255.872V667.221333a38.4 38.4 0 0 0 24.746666 36.096l311.850667 105.301334A32.896 32.896 0 0 0 518.826667 810.666667a34.944 34.944 0 0 0 11.904-2.048l318.72-109.312a42.922667 42.922667 0 0 0 19.285333-30.933334v-361.941333H791.466667V638.976l-273.493334 93.866667-273.28-93.866667v-378.453333c3.2-10.325333 38.4-104.192 273.28-222.165334a1330.944 1330.944 0 0 1 79.189334 43.306667v-89.173333c-19.669333-10.794667-40.490667-21.333333-61.781334-32a34.389333 34.389333 0 0 0-14.037333-3.157334z m2.730667 166.058667a34.816 34.816 0 0 0-24.064 9.984 33.066667 33.066667 0 0 0-9.770667 23.594667v215.125333a140.373333 140.373333 0 0 0-110.165333 134.528v6.314667a138.538667 138.538667 0 0 0 114.133333 129.322666 141.098667 141.098667 0 0 0 26.965333 2.645334 140.544 140.544 0 0 0 138.410667-111.701334 134.357333 134.357333 0 0 0-21.589333-103.424 140.8 140.8 0 0 0-79.786667-55.978666v-43.008h23.04a34.133333 34.133333 0 0 0 33.450667-32.085334 33.109333 33.109333 0 0 0-8.789334-24.021333 34.432 34.432 0 0 0-24.106666-11.178667h-23.594667v-106.666666a34.133333 34.133333 0 0 0-34.133333-33.493334zM519.253333 577.493333a72.533333 72.533333 0 0 1-50.474666-20.48 68.266667 68.266667 0 0 1-20.650667-48.896 67.925333 67.925333 0 0 1 20.650667-49.28 71.509333 71.509333 0 0 1 50.346666-20.650666 71.68 71.68 0 0 1 50.304 20.309333 68.608 68.608 0 0 1 21.077334 49.152 69.205333 69.205333 0 0 1-20.736 49.322667 71.509333 71.509333 0 0 1-50.346667 20.522666h-0.384zM640 128h341.333333v-85.333333h-341.333333zM768 256h85.333333v-341.333333h-85.333333z"  horiz-adv-x="1024" />

    
    <glyph glyph-name="Icon-AddDepartment-24" unicode="&#59015;" d="M725.333333-42.666667v128h-128v85.333334h128v128h85.333334v-128h128v-85.333334h-128v-128zM134.229333-42.666667A48.938667 48.938667 0 0 0 85.333333 6.186667V494.933333a49.109333 49.109333 0 0 0 20.693334 39.978667L483.84 801.706667a48.938667 48.938667 0 0 0 56.405333 0l377.728-266.666667A48.682667 48.682667 0 0 0 938.666667 494.933333v-85.333333h-97.706667V469.717333L512 701.952 183.082667 469.717333v-414.677333h168.96V273.066667A48.938667 48.938667 0 0 0 401.066667 321.706667h170.666666v-97.749334h-121.941333v-217.6A48.938667 48.938667 0 0 0 401.066667-42.666667z"  horiz-adv-x="1024" />

    
    <glyph glyph-name="Icon-AddSame-24" unicode="&#59016;" d="M618.666667 0H254.165333v121.429333H42.666667V658.730667h211.498666V768H810.666667v-308.010667l-556.501334-1.365333V567.893333H129.28v-358.4h124.885333v97.194667H618.666667v-89.6H340.821333v-128.981333H618.666667V0zM340.821333 678.4v-128.981333h383.146667V678.4zM768-0.085333v128h-128v85.333333h128v128h85.333333v-128h128v-85.333333h-128v-128z"  horiz-adv-x="1024" />

    
    <glyph glyph-name="Icon-AddArchitecture-24" unicode="&#59017;" d="M466.389333 0a45.866667 45.866667 0 0 0-27.050666 9.984 48.085333 48.085333 0 0 0-18.261334 32.042667 54.997333 54.997333 0 0 0 0 13.354666v90.794667a46.421333 46.421333 0 0 0 9.344 32.853333 46.208 46.208 0 0 0 31.104 18.688 39.424 39.424 0 0 0 6.4 0.512 44.330667 44.330667 0 0 0 6.698667-0.512h21.674667v148.266667H247.722667v-148.138667h26.666666a39.381333 39.381333 0 0 0 5.12 0.341334 47.36 47.36 0 0 0 44.970667-41.728 46.933333 46.933333 0 0 0 0-13.696v-90.666667a46.08 46.08 0 0 0-9.258667-32.725333 45.994667 45.994667 0 0 0-31.018666-18.816 50.005333 50.005333 0 0 0-6.485334-0.426667 47.189333 47.189333 0 0 0-6.357333 0.426667l-135.381333-0.213334a33.706667 33.706667 0 0 0-4.778667-0.341333 46.378667 46.378667 0 0 0-27.050667 9.941333 48.170667 48.170667 0 0 0-18.346666 31.914667 51.968 51.968 0 0 0 0 13.44v90.794667a46.933333 46.933333 0 0 0 9.258666 32.853333 46.421333 46.421333 0 0 0 31.018667 18.688 41.002667 41.002667 0 0 0 6.528 0.512 44.672 44.672 0 0 0 6.698667-0.512h17.408v242.005333h339.498666V569.984h-24.96a26.794667 26.794667 0 0 0-4.906666-0.426667 45.568 45.568 0 0 0-26.922667 10.026667 48.128 48.128 0 0 0-18.261333 31.914667 54.954667 54.954667 0 0 0 0 13.354666v90.88a47.146667 47.146667 0 0 0 9.344 32.853334 47.189333 47.189333 0 0 0 31.104 18.688 48.725333 48.725333 0 0 0 6.4 0.426666 50.005333 50.005333 0 0 0 6.485333-0.426666l135.125333 0.213333a29.269333 29.269333 0 0 0 4.778667 0.384 45.994667 45.994667 0 0 0 27.008-9.984 48.128 48.128 0 0 0 18.261333-31.914667 43.605333 43.605333 0 0 0 0-13.568l0.256-90.666666a46.421333 46.421333 0 0 0-9.258666-32.725334 46.464 46.464 0 0 0-31.232-18.816 39.381333 39.381333 0 0 0-6.357334-0.512 41.728 41.728 0 0 0-6.485333 0.512h-18.901333v-130.474666H938.666667V298.666667h-91.349334v47.445333h-260.266666V298.666667h-0.256v-298.026667h-115.84a28.330667 28.330667 0 0 0-4.565334-0.64zM768-85.333333v128h-128v85.333333h128v128h85.333333v-128h128v-85.333333h-128v-128z"  horiz-adv-x="1024" />

    
    <glyph glyph-name="Icon-AddtaginBatches-24" unicode="&#59018;" d="M896 810.666667H289.194667A36.906667 36.906667 0 0 1 256 772.266667v-776.533334a36.266667 36.266667 0 0 1 18.944-33.578666c4.736-4.778667 9.472-4.778667 18.944-4.778667a35.498667 35.498667 0 0 1 18.944 4.778667l284.458667 191.744 284.458666-191.744c4.736-4.778667 9.472-4.778667 18.944-4.778667a35.498667 35.498667 0 0 1 18.944 4.778667 40.448 40.448 0 0 1 18.944 33.578666V772.266667c-9.386667 19.242667-23.594667 38.4-42.581333 38.4z m-322.389333-580.266667l-246.528-167.808V733.866667h535.722666v-671.146667l-251.264 167.808a48.64 48.64 0 0 1-18.944 4.778667 27.477333 27.477333 0 0 1-18.944-4.906667zM734.677333 539.093333h-108.245333V648.661333a29.866667 29.866667 0 0 1-33.28 29.482667 28.629333 28.629333 0 0 1-29.141333-29.482667v-109.568h-108.202667a29.525333 29.525333 0 0 1 0-59.008h108.202667v-109.568a32.426667 32.426667 0 0 1 29.141333-33.706666 33.024 33.024 0 0 1 33.28 33.706666V480.085333h108.245333a32.298667 32.298667 0 0 1 33.28 29.482667 35.456 35.456 0 0 1-33.28 29.525333zM123.221333-42.666667c-9.472 0-14.250667 0-18.986666 4.778667A36.352 36.352 0 0 0 85.333333-4.266667V772.266667a37.162667 37.162667 0 0 0 33.152 38.4H213.333333v-76.8H156.416v-671.146667L213.333333 101.504v-91.434667l-71.125333-47.957333a35.626667 35.626667 0 0 0-18.986667-4.778667z"  horiz-adv-x="1024" />

    
    <glyph glyph-name="Icon-AddCard-24" unicode="&#59019;" d="M533.333333 42.666667H128a85.333333 85.333333 0 0 0-85.333333 85.333333V640a85.333333 85.333333 0 0 0 85.333333 85.333333h768a85.333333 85.333333 0 0 0 85.333333-85.333333v-320h-85.333333V597.333333a42.666667 42.666667 0 0 1-42.666667 42.666667H170.666667a42.666667 42.666667 0 0 1-42.666667-42.666667v-426.666666a42.666667 42.666667 0 0 1 42.666667-42.666667h362.666666v-85.333333z m-162.901333 170.666666c-68.266667 0-140.8 17.066667-140.8 64.341334 0 33.749333 0 35.797333 93.866667 84.010666a10.581333 10.581333 0 0 0 6.314666 2.090667h1.194667a34.133333 34.133333 0 0 1 5.632 18.133333v3.882667a126.464 126.464 0 0 0-35.498667 74.453333c0 48.597333 0 94.421333 64.810667 94.421334h2.602667c67.285333-1.28 67.285333-46.506667 67.285333-94.421334a144.128 144.128 0 0 0-35.498667-72.533333v-7.978667a66.176 66.176 0 0 1 5.632-18.176 10.752 10.752 0 0 1 6.314667-2.048h1.194667l0.384 0.469334c97.322667-48.725333 97.322667-48.725333 97.322666-82.389334 0.042667-39.082667-55.210667-64.256-140.757333-64.256zM840.533333 320h-281.6V384h281.6v-64z m0 149.333333h-281.6V554.666667h281.6v-85.333334zM768-85.418667v128h-128v85.333334h128v128h85.333333v-128h128v-85.333334h-128v-128z"  horiz-adv-x="1024" />

    
    <glyph glyph-name="Icon-AddAC-24" unicode="&#59020;" d="M521.344-42.666667h-4.565333a32.64 32.64 0 0 0-12.416 3.114667C211.029333 103.210667 174.762667 222.677333 170.666667 255.872V667.221333a38.4 38.4 0 0 0 24.746666 36.096l311.850667 105.301334A32.896 32.896 0 0 0 518.826667 810.666667a34.944 34.944 0 0 0 11.904-2.048l318.72-109.312a42.922667 42.922667 0 0 0 19.285333-30.933334v-361.941333H791.466667V638.976l-273.493334 93.866667-273.28-93.866667v-378.453333c3.2-10.325333 38.4-104.192 273.28-222.165334a1330.944 1330.944 0 0 1 79.189334 43.306667v-89.173333c-19.669333-10.794667-40.490667-21.333333-61.781334-32a34.389333 34.389333 0 0 0-14.037333-3.157334z m2.730667 166.058667a34.816 34.816 0 0 0-24.064 9.984 33.066667 33.066667 0 0 0-9.770667 23.594667v215.125333a140.373333 140.373333 0 0 0-110.165333 134.528v6.314667a138.538667 138.538667 0 0 0 114.133333 129.322666 141.098667 141.098667 0 0 0 26.965333 2.645334 140.544 140.544 0 0 0 138.410667-111.701334 134.357333 134.357333 0 0 0-21.589333-103.424 140.8 140.8 0 0 0-79.786667-55.978666v-43.008h23.04a34.133333 34.133333 0 0 0 33.450667-32.085334 33.109333 33.109333 0 0 0-8.789334-24.021333 34.432 34.432 0 0 0-24.106666-11.178667h-23.594667v-106.666666a34.133333 34.133333 0 0 0-34.133333-33.493334zM519.253333 577.493333a72.533333 72.533333 0 0 1-50.474666-20.48 68.266667 68.266667 0 0 1-20.650667-48.896 67.925333 67.925333 0 0 1 20.650667-49.28 71.509333 71.509333 0 0 1 50.346666-20.650666 71.68 71.68 0 0 1 50.304 20.309333 68.608 68.608 0 0 1 21.077334 49.152 69.205333 69.205333 0 0 1-20.736 49.322667 71.509333 71.509333 0 0 1-50.346667 20.522666h-0.384zM640 128h341.333333v-85.333333h-341.333333zM768 256h85.333333v-341.333333h-85.333333z"  horiz-adv-x="1024" />

    
    <glyph glyph-name="Icon-AddIncdent-24" unicode="&#59021;" d="M618.666667-42.666667H170.666667a42.666667 42.666667 0 0 0-42.666667 42.666667 42.666667 42.666667 0 0 0 42.666667 42.666667h448v-85.333334z m0 170.666667H298.666667a42.666667 42.666667 0 0 0-42.666667 42.666667V554.666667a256.298667 256.298667 0 0 0 256 256 256.298667 256.298667 0 0 0 256-256h-85.333333a169.813333 169.813333 0 0 1-50.048 120.661333A169.472 169.472 0 0 1 512 725.333333a170.88 170.88 0 0 1-170.666667-170.666666v-341.333334h277.333334v-85.333333z m149.333333 149.333333h-85.333333V554.666667h85.333333v-277.333334z m-353.621333 7.168l48.725333 170.666667H365.482667l242.048 170.666667-48.768-170.666667h99.669333l-243.968-170.666667zM810.666667-128v128h-128v85.333333h128v128h85.333333v-128h128v-85.333333h-128v-128z"  horiz-adv-x="1024" />

    
    <glyph glyph-name="Icon-Disable-24" unicode="&#59022;" d="M512 810.666667a426.666667 426.666667 0 1 1 426.666667-426.666667A426.666667 426.666667 0 0 1 512 810.666667zM162.986667 384a348.586667 348.586667 0 0 0 574.72 265.813333L246.058667 158.293333A347.306667 347.306667 0 0 0 162.986667 384zM512 34.986667a346.88 346.88 0 0 0-209.066667 70.4L790.613333 593.066667A348.586667 348.586667 0 0 0 512 34.986667z"  horiz-adv-x="1024" />

    
    <glyph glyph-name="Icon-Delete-24" unicode="&#59023;" d="M727.466667 575.488H296.533333V721.664A89.088 89.088 0 0 0 385.536 810.666667h253.098667a89.088 89.088 0 0 0 89.002666-89.002667zM374.656 653.909333h274.346667V721.664a10.624 10.624 0 0 1-10.624 10.624H385.28a10.624 10.624 0 0 1-10.624-10.624zM942.08 569.130667H81.792a39.210667 39.210667 0 0 0 0 78.378666H942.08a39.210667 39.210667 0 0 0 0-78.378666zM725.162667-42.666667h-426.666667a119.168 119.168 0 0 0-118.826667 119.210667V623.616h664.149334v-547.072A119.168 119.168 0 0 0 725.162667-42.666667zM258.133333 545.237333v-468.693333a40.832 40.832 0 0 1 40.704-40.832h426.666667a40.832 40.832 0 0 1 40.704 40.832V545.237333zM394.368 478.506667h78.378667v-313.557334H394.368zM551.125333 478.506667h78.378667v-313.557334h-78.378667z"  horiz-adv-x="1024" />

    
    <glyph glyph-name="Icon-DynamicNorification-24" unicode="&#59024;" d="M508.416 853.333333a66.56 66.56 0 0 0 51.754667-24.746666 67.84 67.84 0 0 0 13.696-56.32 355.157333 355.157333 0 0 0 291.157333-349.226667v-296.32h34.688a38.912 38.912 0 0 0 38.784-43.221333 41.130667 41.130667 0 0 0-40.832-41.173334h-224.469333a165.674667 165.674667 0 0 0-322.474667 0H126.165333a41.173333 41.173333 0 0 0 0 82.346667h36.736v296.490667a355.370667 355.370667 0 0 0 281.002667 347.349333 67.84 67.84 0 0 0 11.52 58.496A66.602667 66.602667 0 0 0 508.416 853.333333z m76.8-808.96h-148.778667a85.845333 85.845333 0 0 1 75.52-45.269333 80.384 80.384 0 0 1 73.472 45.269333z m-73.301333 648.533334a270.336 270.336 0 0 1-269.44-271.786667v-294.4h538.88v294.4a270.336 270.336 0 0 1-269.44 271.786667z"  horiz-adv-x="1024" />

    
    <glyph glyph-name="Icon-Attachment-24" unicode="&#59025;" d="M394.709333-42.666667a271.061333 271.061333 0 0 1 189.141334 78.464l300.757333 302.421334a37.290667 37.290667 0 0 1 0 53.589333 36.266667 36.266667 0 0 1-52.949333 0l-300.757334-302.421333a191.744 191.744 0 1 0-270.506666 271.786666l332.8 334.933334a122.325333 122.325333 0 0 0 175.914666 0 125.824 125.824 0 0 0 0-176.085334l-332.8-334.976a56.618667 56.618667 0 0 0-81.322666 0 55.466667 55.466667 0 0 0-17.066667 40.192 52.437333 52.437333 0 0 0 17.066667 40.192l270.506666 271.786667a37.290667 37.290667 0 0 1 0 53.589333 36.266667 36.266667 0 0 1-52.949333 0l-270.506667-269.653333a137.045333 137.045333 0 0 1-39.722666-95.701333 132.48 132.48 0 0 1 39.722666-95.701334 134.784 134.784 0 0 1 189.141334 0l332.8 334.976 7.552 7.637334c1.877333 1.92 3.797333 3.84 3.797333 5.76a203.861333 203.861333 0 0 1-11.349333 273.706666 199.04 199.04 0 0 1-270.506667 11.477334c-1.877333-1.92-3.797333-1.92-5.674667-3.84l-340.48-342.613334a267.989333 267.989333 0 0 1 187.264-459.349333"  horiz-adv-x="1024" />

    
    <glyph glyph-name="Icon-Addtag-24" unicode="&#59026;" d="M810.666667 810.666667H203.861333A36.906667 36.906667 0 0 1 170.666667 772.266667v-776.533334a36.266667 36.266667 0 0 1 18.944-33.578666c4.736-4.778667 9.472-4.778667 18.944-4.778667a35.498667 35.498667 0 0 1 18.944 4.778667l284.458666 191.744 284.458667-191.744c4.736-4.778667 9.472-4.778667 18.944-4.778667a35.498667 35.498667 0 0 1 18.944 4.778667 40.448 40.448 0 0 1 18.944 33.578666V772.266667c-9.386667 19.242667-23.594667 38.4-42.581333 38.4z m-322.389334-580.266667l-246.528-167.808V733.866667h535.722667v-671.146667l-251.264 167.808a48.64 48.64 0 0 1-18.944 4.778667 27.477333 27.477333 0 0 1-18.944-4.906667zM649.344 539.093333h-108.245333V648.661333a29.866667 29.866667 0 0 1-33.28 29.482667 28.629333 28.629333 0 0 1-29.141334-29.482667v-109.568H370.474667a29.525333 29.525333 0 0 1 0-59.008h108.202666v-109.568a32.426667 32.426667 0 0 1 29.141334-33.706666 33.024 33.024 0 0 1 33.28 33.706666V480.085333h108.245333a32.298667 32.298667 0 0 1 33.28 29.482667 35.456 35.456 0 0 1-33.28 29.525333z"  horiz-adv-x="1024" />

    
    <glyph glyph-name="Icon-EditCardLayout-24" unicode="&#59027;" d="M533.333333 42.666667H128a85.333333 85.333333 0 0 0-85.333333 85.333333V640a85.333333 85.333333 0 0 0 85.333333 85.333333h768a85.333333 85.333333 0 0 0 85.333333-85.333333v-320h-85.333333V597.333333a42.666667 42.666667 0 0 1-42.666667 42.666667H170.666667a42.666667 42.666667 0 0 1-42.666667-42.666667v-426.666666a42.666667 42.666667 0 0 1 42.666667-42.666667h362.666666v-85.333333z m-162.901333 170.666666c-68.266667 0-140.8 17.066667-140.8 64.341334 0 33.749333 0 35.797333 93.866667 84.010666a10.581333 10.581333 0 0 0 6.314666 2.090667h1.194667a34.133333 34.133333 0 0 1 5.632 18.133333v3.882667a126.464 126.464 0 0 0-35.498667 74.453333c0 48.597333 0 94.421333 64.810667 94.421334h2.602667c67.285333-1.28 67.285333-46.506667 67.285333-94.421334a144.128 144.128 0 0 0-35.498667-72.533333v-7.978667a66.176 66.176 0 0 1 5.632-18.176 10.752 10.752 0 0 1 6.314667-2.048h1.194667l0.384 0.469334c97.322667-48.725333 97.322667-48.725333 97.322666-82.389334 0.042667-39.082667-55.210667-64.256-140.757333-64.256zM840.533333 320h-281.6V384h281.6v-64z m0 149.333333h-281.6V554.666667h281.6v-85.333334zM963.157333 121.386667h-32.170666a125.909333 125.909333 0 0 1-9.898667 23.893333l24.234667 24.277333a15.658667 15.658667 0 0 1 0 22.272l-27.136 26.965334a17.962667 17.962667 0 0 1-25.344 0l-22.656-22.656a125.738667 125.738667 0 0 1-23.893334 9.898666v34.133334a15.616 15.616 0 0 1-15.616 15.658666h-38.4a17.962667 17.962667 0 0 1-17.962666-17.962666v-32a125.738667 125.738667 0 0 1-23.893334-9.898667l-24.234666 24.277333a15.616 15.616 0 0 1-22.272 0l-26.965334-27.136a17.962667 17.962667 0 0 1 0-25.344l22.656-22.656a125.824 125.824 0 0 1-9.898666-23.893333h-34.133334a15.616 15.616 0 0 1-15.616-15.829333v-38.101334a17.962667 17.962667 0 0 1 17.962667-17.962666h31.957333a125.909333 125.909333 0 0 1 9.898667-23.893334l-24.234667-24.277333a15.658667 15.658667 0 0 1 0-22.272l27.136-26.965333a17.962667 17.962667 0 0 1 25.344 0l22.826667 22.826666a125.696 125.696 0 0 1 23.893333-9.898666v-34.517334a15.829333 15.829333 0 0 1 15.829334-15.829333h37.888a17.962667 17.962667 0 0 1 17.962666 17.962667v32.170666a125.738667 125.738667 0 0 1 23.893334 9.898667l24.234666-24.277333a15.786667 15.786667 0 0 1 22.272 0l26.965334 26.965333a17.962667 17.962667 0 0 1 0 25.344l-22.826667 22.826667a125.866667 125.866667 0 0 1 10.069333 23.893333h34.474667a15.829333 15.829333 0 0 1 15.829333 15.658667v38.4a17.962667 17.962667 0 0 1-18.133333 17.962666z m-152.704-89.856a53.930667 53.930667 0 1 0 53.888 53.930666 53.930667 53.930667 0 0 0-53.888-53.973333z"  horiz-adv-x="1024" />

    
    <glyph glyph-name="Icon-CLose-24" unicode="&#59028;" d="M225.194667 154.624l229.418666 229.418667L225.194667 613.546667a40.533333 40.533333 0 0 0 57.344 57.258666l229.418666-229.418666 229.418667 229.418666a40.533333 40.533333 0 0 0 57.429333-57.258666l-229.418666-229.418667 229.418666-229.504a40.533333 40.533333 0 1 0-57.386666-57.344L512 326.698667 282.538667 97.28a40.533333 40.533333 0 1 0-57.344 57.344z"  horiz-adv-x="1024" />

    
    <glyph glyph-name="Icon-Reset-24" unicode="&#59029;" d="M85.333333 383.616a426.666667 426.666667 0 0 0 426.666667 426.154667v0.938666h208.256L512 602.624V728.96a345.898667 345.898667 0 0 1-345.6-345.301333 345.941333 345.941333 0 0 1 345.6-345.6 345.941333 345.941333 0 0 1 345.6 345.6H938.666667a426.965333 426.965333 0 0 0-426.666667-426.282667 426.922667 426.922667 0 0 0-426.666667 426.24z"  horiz-adv-x="1024" />

    
    <glyph glyph-name="Icon-EditFieldName-24" unicode="&#59030;" d="M576 0h-298.666667v24.021333h60.032a59.349333 59.349333 0 0 1 59.946667 60.032V695.936H229.290667A118.698667 118.698667 0 0 1 109.312 576H85.333333L109.397333 768h720L853.333333 576h-23.978666a118.698667 118.698667 0 0 1-119.936 119.978667h-168.064V84.053333a59.392 59.392 0 0 1 34.688-54.613333V0zM640 0l38.954667 103.765333 63.445333-63.274666L640 0z m115.456 52.352l-64 64 174.08 172.117333 64-64-174.08-172.117333z m186.026667 185.386667l-64 64 32 31.872a26.538667 26.538667 0 0 0 4.266666 3.370666 27.008 27.008 0 0 0 4.48 2.304 27.434667 27.434667 0 0 0 20.864 0 26.965333 26.965333 0 0 0 4.693334-2.517333 26.538667 26.538667 0 0 0 4.266666-3.370667l25.6-25.6a27.392 27.392 0 0 0 5.973334-9.002666 26.922667 26.922667 0 0 0 0-20.309334 27.392 27.392 0 0 0-5.973334-9.002666l-31.872-31.872z"  horiz-adv-x="1024" />

    
    <glyph glyph-name="Icon-Moveto-24" unicode="&#59031;" d="M510.72 0.042667H240.042667a110.933333 110.933333 0 0 0-21.333334 2.048 112.256 112.256 0 0 0-90.794666 110.165333V656.213333a111.957333 111.957333 0 0 0 90.794666 109.909334 110.933333 110.933333 0 0 0 21.333334 2.048h544.128a112.085333 112.085333 0 0 0 111.957333-111.957334v-99.2h-96.085333V656.213333a15.786667 15.786667 0 0 1-15.872 15.872H240.042667a19.285333 19.285333 0 0 1-2.816 0 15.957333 15.957333 0 0 1-13.141334-15.701333v-543.957333a15.914667 15.914667 0 0 1 13.525334-15.872 13.738667 13.738667 0 0 1 2.432 0h544.128a15.914667 15.914667 0 0 1 15.872 16v99.2H896v-99.2a112.298667 112.298667 0 0 0-111.957333-112.213334z m227.797333 344.746666H384V423.68h354.517333V512.042667l157.44-128-157.44-128z"  horiz-adv-x="1024" />

    
    <glyph glyph-name="Icon-Search-24" unicode="&#59032;" d="M430.72 119.893333a345.6 345.6 0 1 0 345.6 345.6 345.6 345.6 0 0 0-345.6-345.6z m0 604.458667a259.029333 259.029333 0 1 1 259.072-259.072 259.328 259.328 0 0 1-259.072 259.072zM618.58635 216.357335m30.16989 30.169889l0.724077 0.724077q30.169889 30.169889 60.339779 0l198.698891-198.698891q30.169889-30.169889 0-60.339779l-0.724078-0.724077q-30.169889-30.169889-60.339778 0l-198.698891 198.698891q-30.169889 30.169889 0 60.339779Z"  horiz-adv-x="1024" />

    
    <glyph glyph-name="Icon-MyIncident-24" unicode="&#59033;" d="M938.666667 387.584a426.666667 426.666667 0 1 1-426.666667-426.666667h388.010667v78.378667h-144.213334A425.642667 425.642667 0 0 1 938.666667 387.584z m-774.954667 0A348.288 348.288 0 1 0 512 39.296a348.288 348.288 0 0 0-348.458667 348.288zM279.466667 407.125333a57.898667 57.898667 0 1 1 57.898666 57.898667 57.898667 57.898667 0 0 1-57.898666-57.898667zM473.6 407.125333a57.898667 57.898667 0 1 1 57.898667 57.898667 57.898667 57.898667 0 0 1-57.898667-57.898667zM667.776 407.125333a57.898667 57.898667 0 1 1 57.898667 57.898667 57.898667 57.898667 0 0 1-57.898667-57.898667z"  horiz-adv-x="1024" />

    
    <glyph glyph-name="Icon-ForwardIncident-24" unicode="&#59034;" d="M121.514667 42.666667a36.778667 36.778667 0 0 0-28.202667 12.8 33.877333 33.877333 0 0 0-7.168 29.312C171.989333 470.528 436.48 549.248 556.928 564.522667V690.346667a34.858667 34.858667 0 0 0 22.613333 32.384 37.248 37.248 0 0 0 39.637334-8.064l308.821333-297.258667a34.133333 34.133333 0 0 0 0-49.365333l-307.626667-297.642667a38.4 38.4 0 0 0-51.2 0c-13.013333 12.544-14.250667 13.696-13.824 184.448-233.130667-9.770667-404.053333-198.570667-406.912-200.533333a36.821333 36.821333 0 0 0-26.837333-11.733334z m452.266666 282.752h20.224a35.498667 35.498667 0 0 0 34.986667-34.858667v-112.768l223.786667 215.381333-222.592 213.034667V532.48a35.456 35.456 0 0 0-34.133334-34.474667c-91.946667-4.693333-298.666667-46.592-402.432-310.186666a650.368 650.368 0 0 0 380.032 137.472z"  horiz-adv-x="1024" />

    
    <glyph glyph-name="Icon-AddUser-24" unicode="&#59035;" d="M781.056 229.077333v160.426667h-68.266667v-160.426667h-157.525333v-68.693333h157.568V0h68.266667v160.384H938.666667v68.693333zM162.261333 100.736a267.221333 267.221333 0 0 0 264.277334 261.333333h0.341333a256.469333 256.469333 0 0 0 151.552-49.109333l8.533333-6.314667 54.613334 55.466667-11.136 8.533333a332.8 332.8 0 0 1-71.296 41.856c3.456 3.029333 6.698667 6.144 9.898666 9.386667a203.690667 203.690667 0 0 1-30.933333 311.466667 204.288 204.288 0 0 1-282.496-54.4 202.069333 202.069333 0 0 1 36.608-267.477334 344.533333 344.533333 0 0 1-207.018667-317.354666v-12.245334h76.117334c0 6.357333 0.682667 12.586667 0.938666 18.858667zM338.218667 653.184a123.733333 123.733333 0 0 0 87.850666 36.650667 122.666667 122.666667 0 1 0 2.133334-245.290667 127.36 127.36 0 0 0-88.277334 34.56 120.96 120.96 0 0 0-1.706666 174.08z"  horiz-adv-x="1024" />

    
    <glyph glyph-name="Icon-Detail-24" unicode="&#59036;" d="M320.810667 599.168h382.464v-79.104H320.810667zM320.810667 430.037333h382.464v-79.104H320.810667zM301.568 218.709333h229.589333v-79.232H301.568zM790.570667 810.666667H232.661333A105.002667 105.002667 0 0 1 128 706.773333v-645.674666A104.96 104.96 0 0 1 232.661333-42.666667h558.677334A104.874667 104.874667 0 0 1 896 61.184V706.858667A104.448 104.448 0 0 1 790.570667 810.666667zM206.634667 707.328a26.709333 26.709333 0 0 0 26.624 25.6h557.653333a26.581333 26.581333 0 0 0 26.496-26.24v-645.376a27.605333 27.605333 0 0 0-26.837333-26.410667H233.258667a26.666667 26.666667 0 0 0-26.581334 26.282667V707.328z"  horiz-adv-x="1024" />

    
    <glyph glyph-name="Icon-Settablefileds-24" unicode="&#59037;" d="M128 721.194667h439.424v-88.149334H128zM708.608 633.045333h188.245333V721.066667h-188.245333V810.666667h-85.333333v-267.392h85.333333zM457.386667 421.930667h439.466666v-88.149334h-439.466666zM315.733333 248.576h85.333334V516.736h-85.333334v-94.890667H128v-88.149333h187.733333zM128.170667 138.752h278.314666v-88.106667H128.170667zM548.138667 138.752v93.568h-85.333334V-42.666667h85.333334v93.312h348.714666v88.106667z"  horiz-adv-x="1024" />

    
    <glyph glyph-name="Icon-Organization-16" unicode="&#59038;" d="M1023.232 102.4a61.632 61.632 0 0 1 0 15.872 56.96 56.96 0 0 1-20.352 37.184 46.4 46.4 0 0 1-35.392 11.136h-19.648v282.24h-390.4V601.024h21.12a46.912 46.912 0 0 1 14.4 0 51.2 51.2 0 0 1 34.624 21.888 56.064 56.064 0 0 1 10.24 38.4V767.04a56.064 56.064 0 0 1 0 15.872 57.024 57.024 0 0 1-20.224 37.312 46.528 46.528 0 0 1-35.392 11.072H432.064a47.616 47.616 0 0 1-14.272 0 51.2 51.2 0 0 1-34.624-21.824 56.128 56.128 0 0 1-10.24-38.4v-105.984a64.896 64.896 0 0 1 0-15.552 57.152 57.152 0 0 1 20.224-37.312 46.336 46.336 0 0 1 35.52-11.072h27.648v-152.064H79.168v-282.368h-19.2a46.272 46.272 0 0 1-14.72 0 51.2 51.2 0 0 1-34.368-21.888 55.36 55.36 0 0 1-10.24-38.4v-105.984a65.408 65.408 0 0 1 0-15.616 57.152 57.152 0 0 1 20.352-37.312 49.28 49.28 0 0 1 30.016-11.584 28.8 28.8 0 0 1 5.248 0.448h150.528a50.048 50.048 0 0 1 14.272 0 51.2 51.2 0 0 1 34.496 21.952 56.512 56.512 0 0 1 10.24 38.4v105.792a61.568 61.568 0 0 1 0 15.872 52.544 52.544 0 0 1-55.616 48.32h-29.632v172.8h276.096v-172.8h-24.128a44.8 44.8 0 0 1-14.528 0 51.2 51.2 0 0 1-34.624-21.824 56.128 56.128 0 0 1-10.24-38.4v-105.984a64.896 64.896 0 0 1 0-15.552 57.152 57.152 0 0 1 20.224-37.312 46.72 46.72 0 0 1 35.52-11.136h150.016a53.248 53.248 0 0 1 14.144 0 54.848 54.848 0 0 1 44.8 60.16v106.176a52.864 52.864 0 0 1 0 15.36 57.216 57.216 0 0 1-20.352 37.312 46.208 46.208 0 0 1-35.392 11.136h-24.256v172.8h289.024v-172.8h-29.12a45.504 45.504 0 0 1-14.656 0 54.784 54.784 0 0 1-44.8-60.096v-106.176a58.048 58.048 0 0 1 0-15.424 56.448 56.448 0 0 1 20.224-37.312 45.888 45.888 0 0 1 35.264-11.136h152.128a55.616 55.616 0 0 1 12.8 0 51.2 51.2 0 0 1 34.496 21.952 56.64 56.64 0 0 1 10.24 38.4z"  horiz-adv-x="1024" />

    
    <glyph glyph-name="Icon-Enable-24" unicode="&#59039;" d="M512.042667-42.709333a426.666667 426.666667 0 1 0 426.666666 426.666666 426.666667 426.666667 0 0 0-426.666666-426.666666z m0 775.68a349.013333 349.013333 0 1 1 349.013333-349.013334 349.013333 349.013333 0 0 1-349.013333 349.013334zM457.002667 187.264l-192 192 55.04 55.04 136.96-137.386667 247.04 247.04 55.04-55.04z"  horiz-adv-x="1024" />

    
    <glyph glyph-name="Icon-Searchaccessright-24" unicode="&#59040;" d="M510.933333-42.666667a15.274667 15.274667 0 0 0-1.877333 0 31.616 31.616 0 0 0-12.032 3.029334C210.176 103.125333 174.933333 222.634667 170.666667 256V667.221333a38.4 38.4 0 0 0 24.234666 36.096l304.896 105.301334A31.829333 31.829333 0 0 0 511.146667 810.666667a33.408 33.408 0 0 0 11.690666-2.133334l311.466667-109.226666a43.349333 43.349333 0 0 0 19.029333-30.976v-331.818667a214.784 214.784 0 0 1-75.605333 25.898667V638.976l-267.349333 93.866667-267.178667-93.866667v-378.410667c3.157333-10.325333 37.376-104.234667 267.178667-222.165333 13.738667 7.125333 27.221333 14.336 40.021333 21.333333a215.381333 215.381333 0 0 1 44.416-63.445333c-21.333333-12.032-43.946667-24.106667-67.498667-35.925333a31.445333 31.445333 0 0 0-13.738666-3.029334h-2.645334z m5.290667 165.973334a33.28 33.28 0 0 0-33.194667 33.536v215.296A139.477333 139.477333 0 0 0 375.466667 506.666667v6.229333h0.256a137.472 137.472 0 0 0 111.445333 129.578667A137.557333 137.557333 0 0 0 648.789333 533.333333a137.856 137.856 0 0 0-99.072-159.317333v-43.093333h22.528a33.706667 33.706667 0 0 0 0.597334-67.328h-23.125334v-106.666667a33.578667 33.578667 0 0 0-33.365333-33.493333z m-4.266667 454.101333a70.272 70.272 0 0 1-49.536-20.608 69.717333 69.717333 0 0 1 49.024-118.656h0.256A69.717333 69.717333 0 0 1 512 577.536zM981.333333-41.472l-98.645333 98.602667A155.52 155.52 0 1 1 753.066667-12.8a154.88 154.88 0 0 1 85.76 26.112L937.472-85.333333z m-134.570666 184.405333a93.866667 93.866667 0 1 0-93.866667 93.866667 93.866667 93.866667 0 0 0 93.866667-93.866667z"  horiz-adv-x="1024" />

    
    <glyph glyph-name="Icon-Sync-24" unicode="&#59041;" d="M356.138667-42.666667l155.349333 155.136v-77.568A349.866667 349.866667 0 0 1 861.013333 384a345.856 345.856 0 0 1-26.282666 133.034667 345.216 345.216 0 0 1-58.154667 94.464 348.586667 348.586667 0 0 1-94.208 77.056l38.016 67.626666a426.922667 426.922667 0 0 0 115.2-94.08 424.661333 424.661333 0 0 0 71.210667-115.626666A423.722667 423.722667 0 0 0 938.709333 384a427.392 427.392 0 0 0-427.221333-426.666667zM85.376 384a427.434667 427.434667 0 0 0 426.666667 426.666667h155.306666l-155.306666-155.392V733.056A349.866667 349.866667 0 0 1 163.029333 384a350.805333 350.805333 0 0 1 171.946667-300.714667l-39.509333-66.730666A428.544 428.544 0 0 0 85.376 384z"  horiz-adv-x="1024" />

    
    <glyph glyph-name="Icon-Print-24" unicode="&#59042;" d="M718.848-42.666667h-413.866667a82.816 82.816 0 0 0-86.229333 78.848l4.778667 174.378667 81.450666 55.466667v-229.717334h413.269334v203.861334l79.616-49.493334 6.656-154.368a82.773333 82.773333 0 0 0-85.76-78.848z m86.229333 649.472h-86.229333V721.450667a15.402667 15.402667 0 0 1-3.754667 11.648h-409.6c2.346667 0 0-4.266667 0-10.794667v-101.290667H218.837333V721.450667A89.301333 89.301333 0 0 0 305.066667 810.666667h413.269333a89.258667 89.258667 0 0 0 86.229333-89.6zM815.104 75.392h-24.704l-65.109333 121.685333H294.570667l-60.202667-121.685333h-25.6a122.624 122.624 0 0 0-123.52 121.258667V544.426667a122.624 122.624 0 0 0 123.52 121.685333h606.336a122.624 122.624 0 0 0 123.52-121.685333v-347.776a122.624 122.624 0 0 0-123.52-121.258667zM242.474667 277.589333h532.650666l61.525334-113.706666a40.576 40.576 0 0 1 19.754666 34.517333V544.426667a41.002667 41.002667 0 0 1-41.301333 40.704H208.810667a41.002667 41.002667 0 0 1-41.301334-40.704v-347.776a40.533333 40.533333 0 0 1 18.432-34.133334zM256.938667 492.544h237.397333v-74.496H256.938667z"  horiz-adv-x="1024" />

    
    <glyph glyph-name="Icon-Add-24" unicode="&#59043;" d="M469.333333-0.085333v341.333333H128a42.666667 42.666667 0 0 0 0 85.333333h341.333333v341.333334a42.666667 42.666667 0 1 0 85.333334 0v-341.333334h341.333333a42.666667 42.666667 0 0 0 0-85.333333h-341.333333v-341.333333a42.666667 42.666667 0 0 0-85.333334 0z"  horiz-adv-x="1024" />

    
    <glyph glyph-name="Icon-Lock-24" unicode="&#59044;" d="M285.866667-42.666667A118.144 118.144 0 0 0 170.666667 77.824v315.733333a118.101333 118.101333 0 0 0 115.2 120.32h10.538666V580.266667A218.069333 218.069333 0 0 0 511.061333 810.666667h1.450667a208.554667 208.554667 0 0 0 154.794667-67.242667A238.549333 238.549333 0 0 0 727.594667 580.266667v-66.432h10.538666a118.229333 118.229333 0 0 0 115.2-120.490667v-315.733333A118.016 118.016 0 0 0 738.133333-42.666667z m-35.072 436.522667v-316.330667a36.864 36.864 0 0 1 35.626666-37.802666H738.133333a36.650667 36.650667 0 0 1 35.242667 37.546666v316.288a36.650667 36.650667 0 0 1-35.584 37.76H285.866667a36.650667 36.650667 0 0 1-35.072-37.461333z m252.202666 333.738667a143.488 143.488 0 0 1-95.658666-48.682667 127.701333 127.701333 0 0 1-31.061334-98.133333v-66.944h271.488V580.266667c0.256 3.114667 0.469333 5.802667 0.554667 8.533333a129.408 129.408 0 0 1-38.186667 96.426667 145.493333 145.493333 0 0 1-99.370666 42.666666h-0.256a48.938667 48.938667 0 0 1-7.509334-0.298666z m5.461334-612.394667a39.082667 39.082667 0 0 0-37.077334 41.514667v79.018666a68.266667 68.266667 0 0 0-20.181333 80 66.261333 66.261333 0 0 0 73.941333 39.594667 67.072 67.072 0 0 0 53.205334-65.792 68.266667 68.266667 0 0 0-25.6-53.802667v-79.488a32.64 32.64 0 0 0 0-6.314666 37.376 37.376 0 0 0-14.549334-26.026667 41.984 41.984 0 0 0-26.197333-8.704h-3.541333z"  horiz-adv-x="1024" />

    
    <glyph glyph-name="Icon-shouqidaohanglan-24" unicode="&#59045;" d="M848.682667 742.528H189.696a32.896 32.896 0 0 1-32.938667-32.938667v-32.938666a32.896 32.896 0 0 1 32.938667-32.938667h658.986667a32.896 32.896 0 0 1 32.938666 32.938667v32.938666a32.896 32.896 0 0 1-32.938666 32.938667z m0-296.490667H420.309333a32.896 32.896 0 0 1-32.938666-32.938666v-32.938667a32.896 32.896 0 0 1 32.938666-32.938667h428.288a32.896 32.896 0 0 1 32.938667 32.938667v32.938667a32.768 32.768 0 0 1-32.853333 32.938666z m0-296.490666H189.696a32.896 32.896 0 0 1-32.938667-32.938667v-32.938667a32.896 32.896 0 0 1 32.938667-32.938666h658.986667a32.896 32.896 0 0 1 32.938666 32.938666v32.938667a32.896 32.896 0 0 1-32.938666 32.853333z m-543.658667 169.813333V473.728a23.936 23.936 0 0 1-40.234667 15.232l-84.608-77.269333a20.224 20.224 0 0 1 0-30.506667l84.608-77.269333a23.936 23.936 0 0 1 40.234667 15.445333z"  horiz-adv-x="1024" />

    
    <glyph glyph-name="Icon-cuowu-24" unicode="&#59046;" d="M445.397333 18.218667A66.901333 66.901333 0 1 1 512 79.104a64 64 0 0 1-66.602667-60.885333zM597.333333 732.672a85.674667 85.674667 0 0 1-170.666666 0v-4.522667l18.730666-497.621333a66.901333 66.901333 0 0 1 133.248 0l18.730667 497.621333v4.522667z m0 0"  horiz-adv-x="1024" />

    
    <glyph glyph-name="Icon-EditACinBatch-24" unicode="&#59047;" d="M521.344-42.666667h-4.565333a32.64 32.64 0 0 0-12.416 3.114667C211.029333 103.210667 174.762667 222.677333 170.666667 255.872V667.221333a38.4 38.4 0 0 0 24.746666 36.096l311.850667 105.301334A32.896 32.896 0 0 0 518.826667 810.666667a34.944 34.944 0 0 0 11.904-2.048l318.72-109.312a42.922667 42.922667 0 0 0 19.285333-30.933334v-361.941333H791.466667V638.976l-273.493334 93.866667-273.28-93.866667v-378.453333c3.2-10.325333 38.4-104.192 273.28-222.165334a1330.944 1330.944 0 0 1 79.189334 43.306667v-89.173333c-19.669333-10.794667-40.490667-21.333333-61.781334-32a34.389333 34.389333 0 0 0-14.037333-3.157334z m2.730667 166.058667a34.816 34.816 0 0 0-24.064 9.984 33.066667 33.066667 0 0 0-9.770667 23.594667v215.125333a140.373333 140.373333 0 0 0-110.165333 134.528v6.314667a138.538667 138.538667 0 0 0 114.133333 129.322666 141.098667 141.098667 0 0 0 26.965333 2.645334 140.544 140.544 0 0 0 138.410667-111.701334 134.357333 134.357333 0 0 0-21.589333-103.424 140.8 140.8 0 0 0-79.786667-55.978666v-43.008h23.04a34.133333 34.133333 0 0 0 33.450667-32.085334 33.109333 33.109333 0 0 0-8.789334-24.021333 34.432 34.432 0 0 0-24.106666-11.178667h-23.594667v-106.666666a34.133333 34.133333 0 0 0-34.133333-33.493334zM519.253333 577.493333a72.533333 72.533333 0 0 1-50.474666-20.48 68.266667 68.266667 0 0 1-20.650667-48.896 67.925333 67.925333 0 0 1 20.650667-49.28 71.509333 71.509333 0 0 1 50.346666-20.650666 71.68 71.68 0 0 1 50.304 20.309333 68.608 68.608 0 0 1 21.077334 49.152 69.205333 69.205333 0 0 1-20.736 49.322667 71.509333 71.509333 0 0 1-50.346667 20.522666h-0.384zM640-85.333333l38.954667 103.765333 63.445333-63.274667L640-85.333333z m115.456 52.352l-64 64 174.08 172.117333 64-64-174.08-172.117333z m186.026667 185.386666l-64 64 32 31.872a26.538667 26.538667 0 0 0 4.266666 3.370667 27.008 27.008 0 0 0 4.48 2.304 27.434667 27.434667 0 0 0 20.864 0 26.965333 26.965333 0 0 0 4.693334-2.517333 26.538667 26.538667 0 0 0 4.266666-3.370667l25.6-25.6a27.392 27.392 0 0 0 5.973334-9.002667 26.922667 26.922667 0 0 0 0-20.309333 27.392 27.392 0 0 0-5.973334-9.002667l-31.872-31.872z"  horiz-adv-x="1024" />

    
    <glyph glyph-name="Icon-ViewArchitecture-24" unicode="&#59048;" d="M131.2 12.117333a46.250667 46.250667 0 0 0-27.050667 10.026667 48.042667 48.042667 0 0 0-18.304 31.914667 59.733333 59.733333 0 0 0 0 13.397333V158.293333a45.568 45.568 0 0 0 9.258667 32.810667 46.506667 46.506667 0 0 0 31.061333 18.773333 52.949333 52.949333 0 0 0 6.485334 0.384 55.466667 55.466667 0 0 0 6.656-0.384h17.408v241.877334h339.584V582.101333h-25.002667a29.866667 29.866667 0 0 0-4.906667-0.384 45.525333 45.525333 0 0 0-26.794666 9.898667 48.213333 48.213333 0 0 0-18.304 32.042667 46.933333 46.933333 0 0 0 0 13.269333L421.034667 727.893333a45.952 45.952 0 0 0 9.386666 32.810667 46.250667 46.250667 0 0 0 31.061334 18.645333 35.669333 35.669333 0 0 0 6.4 0.512 38.4 38.4 0 0 0 6.528-0.512l135.04 0.256a27.776 27.776 0 0 0 4.693333 0.384 45.397333 45.397333 0 0 0 27.050667-9.898666 48.810667 48.810667 0 0 0 18.432-32.042667 61.056 61.056 0 0 0 0-13.525333l0.256-90.709334a47.616 47.616 0 0 0-9.386667-32.682666 45.738667 45.738667 0 0 0-31.146667-18.773334 53.077333 53.077333 0 0 0-6.4-0.384 55.125333 55.125333 0 0 0-6.528 0.384h-18.901333v-130.474666H938.666667v-163.285334a202.837333 202.837333 0 0 1-91.221334 59.946667v9.642667h-260.266666v-148.096h5.418666a225.109333 225.109333 0 0 1-9.728-65.365334 216.746667 216.746667 0 0 1 42.666667-130.474666 37.802667 37.802667 0 0 0-6.784-1.536 55.082667 55.082667 0 0 0-6.4-0.384 55.68 55.68 0 0 0-6.4 0.384h-135.082667a29.866667 29.866667 0 0 0-4.906666-0.384 45.525333 45.525333 0 0 0-26.794667 9.898666 47.445333 47.445333 0 0 0-18.304 31.914667 48 48 0 0 0 0 13.397333l-0.256 90.837334a46.592 46.592 0 0 0 9.258667 32.810666 46.549333 46.549333 0 0 0 31.146666 18.773334 50.048 50.048 0 0 0 6.485334 0.384 60.16 60.16 0 0 0 6.656-0.384h21.674666v148.224H247.210667v-148.096h26.709333c1.706667 0 3.370667 0.256 5.034667 0.256a47.530667 47.530667 0 0 0 45.013333-41.685334 53.248 53.248 0 0 0 0-13.653333l0.256-90.709333a46.165333 46.165333 0 0 0-9.301333-32.682667 46.037333 46.037333 0 0 0-31.018667-18.901333 46.933333 46.933333 0 0 0-6.186667-0.384 61.141333 61.141333 0 0 0-6.656 0.384H135.594667a28.586667 28.586667 0 0 0-4.394667-0.597334zM1012.224-31.061333l-95.616 95.616a150.741333 150.741333 0 1 1-125.653333-67.797334 150.144 150.144 0 0 1 83.114666 25.301334l95.658667-95.616z m-130.432 178.773333a90.837333 90.837333 0 1 0-90.837333 90.837333 90.922667 90.922667 0 0 0 90.837333-90.837333z"  horiz-adv-x="1024" />

    
    <glyph glyph-name="Icon-Completed-24" unicode="&#59049;" d="M512 384m-512 0a512 512 0 1 1 1024 0 512 512 0 1 1-1024 0ZM341.248 383.317333l143.36-143.36 238.933333 238.933334"  horiz-adv-x="1024" />

    
    <glyph glyph-name="Icon-Preview24" unicode="&#59050;" d="M927.36 34.176l-82.048 74.666667a234.666667 234.666667 0 1 1-64.597333-61.866667l86.656-78.677333a44.416 44.416 0 0 1 26.453333-8.533334 53.632 53.632 0 0 1 6.826667 0.512 44.501333 44.501333 0 0 1 29.312 17.706667 44.970667 44.970667 0 0 1-2.602667 56.192z m-128.256 210.176a145.408 145.408 0 1 0-145.450667 145.365333 145.450667 145.450667 0 0 0 145.408-145.365333zM366.250667 44.032H170.666667V723.968h567.466666v-196.266667a42.666667 42.666667 0 0 1 42.666667-42.666666 42.666667 42.666667 0 0 1 42.666667 42.666666V767.189333A43.050667 43.050667 0 0 1 780.8 810.666667H127.786667A43.050667 43.050667 0 0 1 85.333333 767.274667v-766.464A43.136 43.136 0 0 1 128-42.666667h238.250667a43.392 43.392 0 0 1 0 86.698667zM241.365333 641.792c-19.242667 0-34.346667-20.48-34.346666-46.677333s15.104-46.677333 34.346666-46.677334h316.885334c19.242667 0 34.346667 20.522667 34.346666 46.677334s-15.104 46.677333-34.346666 46.677333z"  horiz-adv-x="1024" />

    
    <glyph glyph-name="Icon-Door-24" unicode="&#59051;" d="M800.128 810.666667H223.872a53.888 53.888 0 0 1-38.4-15.957334 50.858667 50.858667 0 0 1-14.677333-38.101333v-745.258667a50.858667 50.858667 0 0 1 14.677333-38.101333 53.888 53.888 0 0 1 38.4-15.957333h576.256a53.888 53.888 0 0 1 38.4 15.957333 50.858667 50.858667 0 0 1 14.677333 38.101333V756.608a50.858667 50.858667 0 0 1-14.677333 38.101333 53.888 53.888 0 0 1-38.4 15.957334z m-106.666667-469.333334a61.397333 61.397333 0 0 0-56.192 37.973334 58.581333 58.581333 0 0 0 14.848 64.981333 62.762667 62.762667 0 0 0 67.456 11.306667 59.733333 59.733333 0 0 0 36.309334-56.405334 58.88 58.88 0 0 0-18.176-42.88 62.378667 62.378667 0 0 0-44.245334-17.322666z"  horiz-adv-x="1024" />

    
    <glyph glyph-name="Icon-zhuanhuanweikuaizhuangbuju-24" unicode="&#59052;" d="M597.333333-42.666667a42.666667 42.666667 0 0 0-42.666666 42.666667v298.666667a42.666667 42.666667 0 0 0 42.666666 42.666666h298.666667a42.666667 42.666667 0 0 0 42.666667-42.666666v-298.666667a42.666667 42.666667 0 0 0-42.666667-42.666667z m37.674667 274.389334v-169.514667a24.490667 24.490667 0 0 1 24.746667-24.192h172.970666a24.490667 24.490667 0 0 1 24.746667 24.192v169.557333a24.533333 24.533333 0 0 1-24.746667 24.234667h-173.013333a24.533333 24.533333 0 0 1-24.704-24.234667zM128-42.666667a42.666667 42.666667 0 0 0-42.666667 42.666667v298.666667a42.666667 42.666667 0 0 0 42.666667 42.666666h298.666667a42.666667 42.666667 0 0 0 42.666666-42.666666v-298.666667a42.666667 42.666667 0 0 0-42.666666-42.666667z m37.674667 274.389334v-169.514667a24.490667 24.490667 0 0 1 24.746666-24.192h172.970667a24.490667 24.490667 0 0 1 24.746667 24.192v169.557333a24.533333 24.533333 0 0 1-24.746667 24.234667H190.378667a24.533333 24.533333 0 0 1-24.704-24.234667zM597.333333 426.666667a42.666667 42.666667 0 0 0-42.666666 42.666666V768a42.666667 42.666667 0 0 0 42.666666 42.666667h298.666667a42.666667 42.666667 0 0 0 42.666667-42.666667v-298.666667a42.666667 42.666667 0 0 0-42.666667-42.666666z m37.674667 274.389333v-169.472a24.490667 24.490667 0 0 1 24.746667-24.192h172.970666a24.490667 24.490667 0 0 1 24.746667 24.192V701.056a24.533333 24.533333 0 0 1-24.746667 24.277333h-173.013333a24.533333 24.533333 0 0 1-24.704-24.277333zM128 426.666667a42.666667 42.666667 0 0 0-42.666667 42.666666V768a42.666667 42.666667 0 0 0 42.666667 42.666667h298.666667a42.666667 42.666667 0 0 0 42.666666-42.666667v-298.666667a42.666667 42.666667 0 0 0-42.666666-42.666666z m37.674667 274.389333v-169.472a24.490667 24.490667 0 0 1 24.746666-24.192h172.970667a24.490667 24.490667 0 0 1 24.746667 24.192V701.056A24.533333 24.533333 0 0 1 363.392 725.333333H190.378667a24.533333 24.533333 0 0 1-24.704-24.277333z"  horiz-adv-x="1024" />

    
    <glyph glyph-name="Icon-AccessControl-24" unicode="&#59053;" d="M819.029333 696.490667L514.645333 810.666667l-307.2-114.176a43.050667 43.050667 0 0 1-36.650666-42.666667v-410.965333c0-25.6 56.405333-97.024 107.136-145.536A1122.986667 1122.986667 0 0 1 509.013333-42.666667h5.632a1203.882667 1203.882667 0 0 1 231.210667 139.861334c50.773333 48.512 107.136 119.850667 107.136 145.536V653.696a40.362667 40.362667 0 0 1-33.962667 42.794667z m-214.314666-373.888a31.104 31.104 0 0 0 28.202666-31.402667 29.184 29.184 0 0 0-28.202666-31.402667h-62.037334v-88.490666a30.506667 30.506667 0 0 0-28.202666-28.544 28.416 28.416 0 0 0-28.202667 28.544V371.2a118.442667 118.442667 0 1 0 62.037333 0v-51.2zM580.266667 491.221333a68.266667 68.266667 0 1 1-68.266667-68.266666 67.541333 67.541333 0 0 1 68.266667 68.266666z"  horiz-adv-x="1024" />

    
    <glyph glyph-name="Icon-Upload-24" unicode="&#59054;" d="M800.725333 345.770667l-61.44-65.962667-182.997333 178.304V-42.666667h-89.045333V458.154667l-182.997334-178.304-61.44 65.962666 288.938667 281.088zM128 719.658667h768V810.666667H128z"  horiz-adv-x="1024" />

    
    <glyph glyph-name="Icon-Warning-24" unicode="&#59055;" d="M511.189333 256.341333h0.682667a35.413333 35.413333 0 0 1 27.264 10.965334 38.101333 38.101333 0 0 1 11.52 27.136V560.725333a39.04 39.04 0 0 1-37.461333 37.461334 37.504 37.504 0 0 1-27.946667-10.325334 38.784 38.784 0 0 1-12.458667-27.434666v-266.410667a38.4 38.4 0 0 1 38.4-37.674667zM920.661333 156.885333L603.434667 706.901333A108.714667 108.714667 0 0 1 511.061333 768a108.032 108.032 0 0 1-90.88-60.586667l-316.586666-550.101333a105.557333 105.557333 0 0 1-5.546667-109.568A112.853333 112.853333 0 0 1 189.738667 0c2.688 0 5.418667 0 8.064 0.298667h628.992a115.2 115.2 0 0 1 14.677333 0h4.650667l-0.384 0.341333a113.493333 113.493333 0 0 1 80.512 48 104.661333 104.661333 0 0 1-5.589334 108.245333z m-750.933333-36.778666l317.056 550.4c9.685333 16.725333 19.413333 22.656 24.874667 22.656 5.845333 0 15.786667-6.997333 24.874666-22.656l318.122667-551.296a35.498667 35.498667 0 0 0 5.632-33.066667 39.68 39.68 0 0 0-34.133333-11.434667H196.778667a39.253333 39.253333 0 0 0-33.109334 11.52 36.949333 36.949333 0 0 0 6.058667 33.877334zM511.232 119.253333h0.682667a54.698667 54.698667 0 1 1-56.149334 54.528 55.466667 55.466667 0 0 1 55.466667-54.528z"  horiz-adv-x="1024" />

    
    <glyph glyph-name="Icon-Edit-24" unicode="&#59056;" d="M753.152 0H234.752a106.666667 106.666667 0 0 0-106.666667 106.666667V625.109333a106.666667 106.666667 0 0 0 106.666667 106.666667h257.877333v-91.477333H234.752a15.232 15.232 0 0 1-15.232-15.232V106.666667a15.232 15.232 0 0 1 15.232-15.232h518.4a15.232 15.232 0 0 1 15.232 15.232v257.962666h91.477333v-257.92A106.666667 106.666667 0 0 0 753.152 0zM415.104 359.338667L823.765333 768 896 695.765333l-408.661333-408.661333z"  horiz-adv-x="1024" />

    
    <glyph glyph-name="Icon-Logout-24" unicode="&#59057;" d="M601.130667 276.352a40.917333 40.917333 0 0 1-40.746667-40.746667v-178.048a18.688 18.688 0 0 0-18.602667-18.645333H185.472a18.730667 18.730667 0 0 0-18.602667 18.602667V710.485333a18.730667 18.730667 0 0 0 18.602667 18.645334h356.181333a18.730667 18.730667 0 0 0 18.645334-18.602667v-178.090667a40.789333 40.789333 0 0 1 81.578666 0V710.570667A100.650667 100.650667 0 0 1 541.866667 810.666667H185.429333A100.650667 100.650667 0 0 1 85.333333 710.528v-653.098667A100.650667 100.650667 0 0 1 185.472-42.666667H541.866667a100.608 100.608 0 0 1 100.096 100.138667v178.176a40.874667 40.874667 0 0 1-40.832 40.704zM926.848 412.672L778.154667 561.493333a40.917333 40.917333 0 0 1-57.6-58.069333l78.976-78.762667H304.170667a40.789333 40.789333 0 0 1 0-81.578666h495.36l-79.061334-78.634667a40.874667 40.874667 0 0 1 57.856-57.770667l148.48 148.266667a41.216 41.216 0 0 1 0.042667 57.728z"  horiz-adv-x="1024" />

    
    <glyph glyph-name="Icon-Report-24" unicode="&#59058;" d="M806.826667 767.786667H217.173333a42.112 42.112 0 0 1-32.213333-10.837334A43.904 43.904 0 0 1 170.666667 725.546667v-681.856a43.946667 43.946667 0 0 1 13.824-32.256 42.112 42.112 0 0 1 32.682666-11.264h589.653334a42.112 42.112 0 0 1 32.682666 11.264 43.946667 43.946667 0 0 1 13.824 32.256V725.546667a43.904 43.904 0 0 1-14.293333 31.402666 42.112 42.112 0 0 1-32.213333 10.837334z m-143.36-600.874667H356.693333a38.954667 38.954667 0 0 0-38.741333 17.92 40.746667 40.746667 0 0 0 0 43.434667 38.954667 38.954667 0 0 0 38.741333 17.92h306.773334a38.954667 38.954667 0 0 0 38.741333-17.92 40.746667 40.746667 0 0 0 0-43.434667 38.954667 38.954667 0 0 0-38.741333-17.92z m0 181.589333H356.693333a39.722667 39.722667 0 1 0 0 79.232h306.773334a39.722667 39.722667 0 1 0 0-79.232z m0 181.589334H356.693333a39.722667 39.722667 0 1 0 0 79.232h306.773334a39.722667 39.722667 0 1 0 0-79.232z"  horiz-adv-x="1024" />

    
    <glyph glyph-name="Icon-wancheng-24" unicode="&#59059;" d="M841.130667 665.258667l-460.8-445.397334-192.768 185.557334a60.16 60.16 0 0 1-84.608 0 52.864 52.864 0 0 1 0-78.890667l230.4-222.677333a85.077333 85.077333 0 0 1 42.325333-18.56 51.2 51.2 0 0 1 42.325333 18.56L921.088 586.368a52.864 52.864 0 0 1 0 78.890667 54.528 54.528 0 0 1-79.914667 0z"  horiz-adv-x="1024" />

    
    <glyph glyph-name="Icon-piliangdaoru-24" unicode="&#59060;" d="M542.848-42.709333H258.090667A131.242667 131.242667 0 0 0 128 89.002667V678.912a131.242667 131.242667 0 0 0 130.090667 131.712h486.613333a131.2 131.2 0 0 0 130.090667-131.712v-330.410667h-83.029334V678.912a47.616 47.616 0 0 1-47.317333 47.872h-486.4a47.616 47.616 0 0 1-47.317333-47.872v-589.696a47.616 47.616 0 0 1 47.317333-47.872h284.757333zM313.898667 600.661333h375.04v-84.010666h-375.04zM313.898667 411.477333h375.04v-84.010666h-375.04zM311.04 222.336h192v-84.010667h-192zM601.941333 159.232H896v-84.010667h-294.058667zM700.458667-31.232l-148.565334 148.522667 148.565334 148.522666 59.392-59.392-89.173334-89.130666 89.173334-89.130667z"  horiz-adv-x="1024" />

    
    <glyph glyph-name="Icon-User-24" unicode="&#59061;" d="M306.218667 609.834667A205.824 205.824 0 1 1 512 810.666667a203.349333 203.349333 0 0 1-205.781333-200.832zM694.016 386.944a281.6 281.6 0 0 0-363.989333 0A335.744 335.744 0 0 1 170.666667 102.826667v-98.517334a47.317333 47.317333 0 0 1 47.658666-46.933333h587.349334a47.317333 47.317333 0 0 1 47.658666 46.933333V102.826667a335.914667 335.914667 0 0 1-159.317333 284.117333z"  horiz-adv-x="1024" />

    
    <glyph glyph-name="Icon-shangyiyiceng-24" unicode="&#59062;" d="M853.333333 0H298.666667v121.216H170.666667V768h554.666666v-121.216h128zM682.666667 727.552H213.333333V161.706667h85.333334V646.784h384z"  horiz-adv-x="1024" />

    
    <glyph glyph-name="Icon-dingbuduiqi-24" unicode="&#59063;" d="M870.4 768H153.6a28.501333 28.501333 0 0 1-25.6-30.72 28.501333 28.501333 0 0 1 25.6-30.72h716.8a28.544 28.544 0 0 1 25.6 30.72 28.544 28.544 0 0 1-25.6 30.72z m-89.6-201.6q0 48-46.037333 48H596.48q-46.08 0-46.08-48v-287.957333q0-48.042667 46.08-48.042667h138.282667q46.08 0 46.08 48z m-307.2-3.2q0 51.2-46.122667 51.2h-138.24q-46.08 0-46.08-51.2v-512q0-51.2 46.08-51.2h138.282667q46.08 0 46.08 51.2z"  horiz-adv-x="1024" />

    
    <glyph glyph-name="Icon-chulishijian-24" unicode="&#59064;" d="M128 467.2h170.666667a69.589333 69.589333 0 0 1 69.546666 69.589333V725.333333h293.546667v-481.28a42.666667 42.666667 0 0 1 42.666667-42.666666 42.666667 42.666667 0 0 1 42.666666 42.666666V768a42.666667 42.666667 0 0 1-42.666666 42.666667H325.76a42.666667 42.666667 0 0 1-31.36-13.568L54.144 539.221333A42.666667 42.666667 0 0 1 42.666667 510.122667V25.173333a42.666667 42.666667 0 0 1 42.666666-42.666666h290.986667a42.666667 42.666667 0 0 1 42.666667 42.666666 42.666667 42.666667 0 0 1-42.666667 42.666667H128z m55.466667 85.333333l99.413333 107.093334V567.466667a14.805333 14.805333 0 0 0-14.805333-14.805334zM913.066667 257.109333l-226.986667-226.389333-126.72 126.72a42.666667 42.666667 0 0 1-60.586667 0 42.666667 42.666667 0 0 1 0-60.586667l155.178667-154.837333a45.397333 45.397333 0 0 1 64 0l255.018667 254.677333a42.666667 42.666667 0 0 1 0 60.501334 42.666667 42.666667 0 0 1-59.904-0.085334z"  horiz-adv-x="1024" />

    
    <glyph glyph-name="Icon-dongtaitongzhi-zhuce-24" unicode="&#59065;" d="M470.272 152.32a260.949333 260.949333 0 0 0 60.586667 165.76H412.458667a265.386667 265.386667 0 0 1-278.954667-273.706667v-18.432c0-84.266667 128.896-84.266667 289.664-84.266666h163.285333a254.08 254.08 0 0 0-116.181333 210.645333z m28.928 210.645333a232.021333 232.021333 0 0 1 229.077333 234.325334A228.693333 228.693333 0 0 1 499.2 831.616a234.368 234.368 0 0 1 0-468.650667z m408.064-134.357333a192.768 192.768 0 0 1-44.885333 65.792 196.266667 196.266667 0 0 1-65.792 44.885333 212.565333 212.565333 0 0 1-79.018667 15.701334 200.533333 200.533333 0 0 1-144.810667-60.586667 172.245333 172.245333 0 0 1-44.885333-65.792 205.738667 205.738667 0 0 1-15.701333-81.493333 214.698667 214.698667 0 0 1 15.701333-81.493334 236.288 236.288 0 0 1 44.885333-68.565333 196.266667 196.266667 0 0 1 65.792-44.885333 207.701333 207.701333 0 0 1 79.018667-15.701334 200.533333 200.533333 0 0 1 144.810667 60.586667 208.469333 208.469333 0 0 1 44.885333 68.565333 215.637333 215.637333 0 0 1 15.701333 81.493334 197.376 197.376 0 0 1-15.701333 81.450666z m-52.608-81.493333a21.333333 21.333333 0 0 0-10.453333-20.949334 39.253333 39.253333 0 0 0-23.68-5.248h-73.770667v-73.770666a45.354667 45.354667 0 0 0-7.978667-26.410667 25.6 25.6 0 0 0-23.68-10.453333 23.936 23.936 0 0 0-20.949333 10.453333 42.666667 42.666667 0 0 0-7.978667 23.68v73.728h-65.834666a32.341333 32.341333 0 0 0-23.68 7.978667 23.637333 23.637333 0 0 0-10.453334 20.949333 25.984 25.984 0 0 0 10.453334 23.68 28.458667 28.458667 0 0 0 23.68 10.453333h65.621333v71.04a32.341333 32.341333 0 0 0 7.978667 23.68 23.637333 23.637333 0 0 0 20.949333 10.453334 25.984 25.984 0 0 0 23.68-10.453334 42.666667 42.666667 0 0 0 7.978667-23.68v-71.082666h73.770666a34.688 34.688 0 0 0 34.346667-34.133334z"  horiz-adv-x="1024" />

    
    <glyph glyph-name="Icon-zhanghao-24" unicode="&#59066;" d="M672.853333 361.514667a259.114667 259.114667 0 0 1 71.978667 282.282666 247.210667 247.210667 0 0 1-467.541333 0 259.114667 259.114667 0 0 1 71.978666-282.282666A437.546667 437.546667 0 0 1 85.333333-42.709333h92.458667a334.293333 334.293333 0 1 0 668.416 0H938.666667a437.461333 437.461333 0 0 1-265.813334 404.224zM355.285333 554.154667A156.757333 156.757333 0 1 0 512 394.154667a158.634667 158.634667 0 0 0-156.714667 160z"  horiz-adv-x="1024" />

    
    <glyph glyph-name="Icon-Seevideo-24" unicode="&#59067;" d="M511.914667 135.722667a337.493333 337.493333 0 1 0 341.333333 338.816 335.957333 335.957333 0 0 0-99.626667-239.36 343.765333 343.765333 0 0 0-241.706666-99.456z m0 591.701333a256.725333 256.725333 0 0 1-237.226667-156.885333 251.733333 251.733333 0 0 1 56.064-276.650667 258.858667 258.858667 0 0 1 280.021333-54.442667 253.354667 253.354667 0 0 1-98.858666 487.893334zM512.042667 329.472a145.066667 145.066667 0 1 0 147.2 146.346667 143.872 143.872 0 0 0-42.666667-103.381334 148.309333 148.309333 0 0 0-104.533333-42.965333z m0 205.952a61.909333 61.909333 0 0 1-57.301334-37.973333 60.330667 60.330667 0 0 1 14.037334-66.602667 62.592 62.592 0 0 1 67.925333-12.330667 60.842667 60.842667 0 0 1-24.661333 116.906667zM338.261333 196.693333h85.333334v-179.754666h-85.333334z m262.272 0h85.333334v-179.754666h-85.333334zM176.128 41.344h672.298667V-42.666667H176.128z"  horiz-adv-x="1024" />

    
    <glyph glyph-name="Icon-Zone-24" unicode="&#59068;" d="M921.216 603.690667L527.36 806.954667a33.621333 33.621333 0 0 1-30.72 0L102.784 603.690667a31.616 31.616 0 0 1 0-56.533334l393.856-203.349333a33.621333 33.621333 0 0 1 30.72 0l393.856 203.349333a31.616 31.616 0 0 1 0 56.533334zM512 408.277333L188.288 575.317333 512 742.442667l323.712-167.125334zM512 220.842667l-378.88 195.413333-30.762667-56.533333 394.282667-203.392a33.706667 33.706667 0 0 1 30.762667 0l394.282666 203.392-30.762666 56.533333zM512 25.514667l-378.88 195.413333-30.762667-56.704 394.282667-203.349333a33.706667 33.706667 0 0 1 30.762667 0l394.24 203.349333-30.762667 56.576z"  horiz-adv-x="1024" />

    
    <glyph glyph-name="Icon-Notification-24" unicode="&#59069;" d="M249.429333 197.376v266.624a265.770667 265.770667 0 0 0 210.090667 261.376v32.085333a52.522667 52.522667 0 1 0 105.002667 0v-32.085333a265.770667 265.770667 0 0 0 210.090666-261.290667v-266.624h26.325334a53.333333 53.333333 0 0 0 0-106.666666H223.061333a53.333333 53.333333 0 0 0 0 106.666666z m341.333334-160.042667a78.762667 78.762667 0 1 0-157.482667 0z"  horiz-adv-x="1024" />

    
    <glyph glyph-name="Icon-Map-24" unicode="&#59070;" d="M935.850667 115.498667l-87.594667 280.576a58.538667 58.538667 0 0 1-55.722667 41.301333h-40.618666a52.992 52.992 0 0 1-43.392-23.637333 963.882667 963.882667 0 0 0-132.010667-147.626667l-7.125333-6.869333a82.304 82.304 0 0 0-114.304 0l-8.277334 7.978666a967.68 967.68 0 0 0-131.882666 146.986667 51.456 51.456 0 0 1-42.197334 22.997333H226.602667a58.453333 58.453333 0 0 1-55.893334-41.941333l-82.773333-276.096a58.794667 58.794667 0 0 1 70.101333-74.410667l187.306667 47.317334a57.898667 57.898667 0 0 0 49.450667-10.197334l147.242666-112.682666a58.069333 58.069333 0 0 1 50.090667-10.112l301.866667 79.701333a60.458667 60.458667 0 0 1 42.666666 73.685333 32.298667 32.298667 0 0 1-0.810666 2.901334zM494.122667 292.949333a26.282667 26.282667 0 0 1 36.309333 0c65.536 62.208 192.725333 177.877333 192.725333 306.901334a210.816 210.816 0 1 1-421.674666 0c0-129.493333 125.525333-243.029333 192.64-306.901334z m18.218666 386.048a79.146667 79.146667 0 0 0 2.133334-158.293333h-2.133334a79.146667 79.146667 0 0 0 0 158.293333z"  horiz-adv-x="1024" />

    
    <glyph glyph-name="Icon-CurrentUser-24" unicode="&#59071;" d="M522.922485-79.184174v390.052166h-21.716972v-390.052166a50.431159 50.431159 0 0 0-100.819653 0V619.214853a17.62104 17.62104 0 0 1-17.919701-14.847752v-298.661689a41.300645 41.300645 0 0 0-41.897968-40.660656 41.300645 41.300645 0 0 0-41.897969 40.788653v298.661689A98.942351 98.942351 0 0 0 399.575207 700.57883h225.02025A98.814353 98.814353 0 0 0 725.329778 604.79376v-298.960351a41.940634 41.940634 0 0 0-83.838603 0v298.661689c0 7.551874-11.17848 14.634423-19.967667 14.634423v-698.441692A47.828536 47.828536 0 0 0 573.225646-127.994027a49.57784 49.57784 0 0 0-50.303161 48.809853zM425.217446 811.723645A85.587907 85.587907 0 0 0 512 895.988907a85.587907 85.587907 0 0 0 86.953217-84.265262A85.587907 85.587907 0 0 0 512 727.415716a85.587907 85.587907 0 0 0-86.782554 84.307929z"  horiz-adv-x="1024" />

    
    <glyph glyph-name="Icon-dongtaitongzhi-tonghang-24" unicode="&#59072;" d="M509.610667-58.368H425.472c-166.186667 0-297.429333 0-297.429333 84.266667v18.474666a267.562667 267.562667 0 0 0 81.450666 197.973334 295.936 295.936 0 0 0 204.8 75.733333h195.072a296.021333 296.021333 0 0 0 205.056-75.733333A267.733333 267.733333 0 0 0 896 44.416v-18.474667c0-84.309333-131.285333-84.309333-297.472-84.309333H512l-1.28-0.298667zM268.330667 597.248a236.714667 236.714667 0 0 0 403.413333 165.717333 224.64 224.64 0 0 0 67.072-165.717333 235.221333 235.221333 0 0 0-470.485333 0z"  horiz-adv-x="1024" />

    
    <glyph glyph-name="Icon-youduiqi-24" unicode="&#59073;" d="M896 25.6V742.4a28.501333 28.501333 0 0 1-30.72 25.6 28.501333 28.501333 0 0 1-30.72-25.6v-716.8a28.544 28.544 0 0 1 30.72-25.6 28.544 28.544 0 0 1 30.72 25.6z m-201.6 89.6q48 0 48 46.037333V299.52q0 46.08-48 46.08H406.442667Q358.4 345.6 358.4 299.52v-138.282667q0-46.08 48-46.08z m-3.2 307.2q51.2 0 51.2 46.122667v138.24q0 46.08-51.2 46.08h-512q-51.2 0-51.2-46.08v-138.282667q0-46.08 51.2-46.08z"  horiz-adv-x="1024" />

    
    <glyph glyph-name="Icon-shuipingfenbu-24" unicode="&#59074;" d="M766.250667 25.6V742.4a31.232 31.232 0 0 0 61.44 0v-716.8a31.232 31.232 0 0 0-61.44 0z m-552.96 0V742.4a28.544 28.544 0 0 0 30.72 25.6 28.544 28.544 0 0 0 30.72-25.6v-716.8a28.544 28.544 0 0 0-30.72-25.6 28.544 28.544 0 0 0-30.72 25.6z m238.08 51.2q-46.08 0-46.08 51.2V640q0 51.2 46.08 51.2h138.24q46.08 0 46.08-51.2v-512q0-51.2-46.122667-51.2z"  horiz-adv-x="1024" />

    
    <glyph glyph-name="Icon-shuipingduiqichuizhiduiqi-24" unicode="&#59075;" d="M870.4 413.866667h-89.6V519.466667q0 48-46.037333 48H596.48q-46.08 0-46.08-48V413.866667h-76.8V631.466667q0 51.2-46.08 51.2H289.28Q243.2 682.666667 243.2 631.466667v-217.6H153.6a28.501333 28.501333 0 0 1-25.6-30.72 28.501333 28.501333 0 0 1 25.6-30.72h89.6v-232.96q0-51.2 46.08-51.2h138.24q46.08 0 46.122667 51.2v232.96H550.4v-120.917334q0-48.042667 46.08-48.042666h138.282667q46.08 0 46.08 48V352.426667H870.4a28.544 28.544 0 0 1 25.6 30.72 28.544 28.544 0 0 1-25.6 30.72z"  horiz-adv-x="1024" />

    
    <glyph glyph-name="Icon-zhuanhuanweishuzhuangbuju-24" unicode="&#59076;" d="M341.333333-42.666667a42.666667 42.666667 0 0 0-42.666666 42.666667v85.333333H128a42.666667 42.666667 0 0 0-42.666667 42.666667V640a42.666667 42.666667 0 0 0 42.666667 42.666667h170.666667V768a42.666667 42.666667 0 0 0 42.666666 42.666667h554.666667a42.666667 42.666667 0 0 0 42.666667-42.666667v-256a42.666667 42.666667 0 0 0-42.666667-42.666667H341.333333a42.666667 42.666667 0 0 0-42.666666 42.666667V597.333333H170.666667v-426.666666h128v85.333333a42.666667 42.666667 0 0 0 42.666666 42.666667h554.666667a42.666667 42.666667 0 0 0 42.666667-42.666667v-256a42.666667 42.666667 0 0 0-42.666667-42.666667z m32.768 240.64v-145.066666a23.381333 23.381333 0 0 1 22.485334-24.192h449.322666a23.381333 23.381333 0 0 1 22.485334 24.192v145.066666a23.381333 23.381333 0 0 1-22.485334 24.149334H396.586667a23.381333 23.381333 0 0 1-22.485334-24.106667z m1.749334 516.864v-148.565333a23.552 23.552 0 0 1 22.144-24.789333h443.349333a23.594667 23.594667 0 0 1 22.144 24.789333V714.837333a23.594667 23.594667 0 0 1-22.144 24.789334H398.037333a23.552 23.552 0 0 1-22.186666-24.789334z"  horiz-adv-x="1024" />

    
    <glyph glyph-name="Icon-chuizhifenbu-24" unicode="&#59077;" d="M153.6 129.706667h716.8a31.232 31.232 0 0 0 0-61.44H153.6a31.232 31.232 0 0 0 0 61.44zM153.6 682.666667h716.8a28.544 28.544 0 0 0 25.6-30.72 28.544 28.544 0 0 0-25.6-30.72H153.6a28.544 28.544 0 0 0-25.6 30.72 28.544 28.544 0 0 0 25.6 30.72z m51.2-238.08Q204.8 490.666667 256 490.666667h512q51.2 0 51.2-46.08v-138.24q0-46.08-51.2-46.08H256q-51.2 0-51.2 46.122666z"  horiz-adv-x="1024" />

    
    <glyph glyph-name="Icon-Unlock-24" unicode="&#59078;" d="M312.448 68.778667v333.610666a107.221333 107.221333 0 0 0 91.050667 109.781334l0.384 53.418666a243.669333 243.669333 0 0 1-20.053334 100.522667 107.861333 107.861333 0 0 1-102.4 64.768c-79.616 0-123.178667-58.709333-123.178666-165.248v-5.205333a37.589333 37.589333 0 0 0-35.882667-38.4 37.802667 37.802667 0 0 0-37.205333 38.784v4.266666c0 149.205333 76.8 245.76 195.797333 245.76l10.410667-0.384c112.896-5.589333 185.258667-100.650667 185.258666-245.376v-51.882666h361.173334a107.690667 107.690667 0 0 0 100.693333-111.232v-333.525334a107.136 107.136 0 0 0-100.693333-110.933333h-424.106667a107.434667 107.434667 0 0 0-101.248 111.274667z m84.565333 356.394666a32.554667 32.554667 0 0 1-8.533333-22.656v-334.72a34.688 34.688 0 0 1 8.533333-22.656 24.149333 24.149333 0 0 1 17.066667-7.850666h422.698667a21.930667 21.930667 0 0 1 16.725333 7.765333 32.512 32.512 0 0 1 8.533333 22.570667l-0.213333 10.581333h0.64v324.266667a34.432 34.432 0 0 1-8.533333 22.698666 24.362667 24.362667 0 0 1-17.066667 7.850667H413.696a21.845333 21.845333 0 0 1-16.682667-7.850667z m225.066667-335.829333a44.288 44.288 0 0 0-42.410667 46.037333v71.509334a77.610667 77.610667 0 1 0 121.130667 64.597333 79.104 79.104 0 0 0-32.64-64.426667v-72.064a19.328 19.328 0 0 0 0-3.285333 44.245333 44.245333 0 0 0-44.117333-42.325333z"  horiz-adv-x="1024" />

    
    <glyph glyph-name="Icon-dibuduiqi-24" unicode="&#59079;" d="M870.4 0H153.6a28.501333 28.501333 0 0 0-25.6 30.72 28.501333 28.501333 0 0 0 25.6 30.72h716.8a28.544 28.544 0 0 0 25.6-30.72 28.544 28.544 0 0 0-25.6-30.72z m-89.6 201.6q0-48-46.037333-48H596.48q-46.08 0-46.08 48V489.557333q0 48.042667 46.08 48.042667h138.24q46.08 0 46.08-48z m-307.2 3.2q0-51.2-46.08-51.2H289.237333Q243.2 153.6 243.2 204.8v512Q243.2 768 289.28 768h138.24q46.08 0 46.08-51.2z"  horiz-adv-x="1024" />

    
    <glyph glyph-name="Icon-Reader-24" unicode="&#59080;" d="M733.098667 810.666667H290.944A76.288 76.288 0 0 1 213.333333 735.786667v-703.573334A76.288 76.288 0 0 1 290.944-42.666667h442.197333a76.245333 76.245333 0 0 1 77.568 74.88V735.786667A76.245333 76.245333 0 0 1 733.098667 810.666667zM373.717333 39.68a192.938667 192.938667 0 0 0-0.554666 202.112l31.104-17.621333a159.018667 159.018667 0 0 1 0.469333-166.656z m57.6 44.885333a103.552 103.552 0 0 0-0.298666 108.544l31.104-17.621333a69.717333 69.717333 0 0 1 0-73.130667z m161.365334 0l-30.976 17.792a69.845333 69.845333 0 0 1 0 73.130667l31.146666 17.621333a103.424 103.424 0 0 0-0.341333-108.544z m57.6-44.885333l-30.976 17.834667a159.232 159.232 0 0 1 0.469333 166.656l31.104 17.621333a193.066667 193.066667 0 0 0-0.597333-202.112zM725.333333 316.672H298.666667V728.362667h426.666666z"  horiz-adv-x="1024" />

    
    <glyph glyph-name="Icon-zuoduiqi-24" unicode="&#59081;" d="M128 25.6V742.4a28.501333 28.501333 0 0 0 30.72 25.6 28.501333 28.501333 0 0 0 30.72-25.6v-716.8a28.544 28.544 0 0 0-30.72-25.6 28.544 28.544 0 0 0-30.72 25.6z m201.6 89.6Q281.6 115.2 281.6 161.237333V299.52q0 46.08 48 46.08h287.957333q48.042667 0 48.042667-46.08v-138.24q0-46.08-48-46.08z m3.2 307.2q-51.2 0-51.2 46.08V606.762667Q281.6 652.8 332.8 652.8h512q51.2 0 51.2-46.08v-138.24q0-46.08-51.2-46.08z"  horiz-adv-x="1024" />

    
    <glyph glyph-name="Icon-juzhongduiqishuiping-24" unicode="&#59082;" d="M482.090667 742.4v-89.6H376.490667q-48 0-48-46.037333v-138.282667q0-46.08 48-46.08h105.6v-76.8h-217.6q-51.2 0-51.2-46.08v-138.24q0-46.08 51.2-46.08h217.6v-89.6a28.501333 28.501333 0 0 1 30.72-25.6 28.501333 28.501333 0 0 1 30.72 25.6v89.6h232.96q51.2 0 51.2 46.08v138.24q0 46.08-51.2 46.122667h-232.96V422.4h120.917333q48.042667 0 48.042667 46.08V606.762667q0 46.08-48 46.08h-120.96V742.4a28.544 28.544 0 0 1-30.72 25.6 28.544 28.544 0 0 1-30.72-25.6z"  horiz-adv-x="1024" />

    
    <glyph glyph-name="Icon-Service-24" unicode="&#59083;" d="M892.842667 768H131.242667a47.573333 47.573333 0 0 1-45.866667-49.152v-102.4A47.573333 47.573333 0 0 1 131.242667 567.466667h761.6a47.573333 47.573333 0 0 1 45.866666 49.109333v102.4A47.573333 47.573333 0 0 1 892.842667 768z m-75.733334-141.141333a39.253333 39.253333 0 0 0-37.802666 39.850666 39.466667 39.466667 0 0 0 36.48 41.258667 38.997333 38.997333 0 0 0 39.210666-38.4 42.325333 42.325333 0 0 0-10.325333-30.165333 36.693333 36.693333 0 0 0-27.562667-12.544z m75.733334-142.848H131.242667a47.573333 47.573333 0 0 1-45.866667-49.152v-101.717334a47.573333 47.573333 0 0 1 45.866667-49.152h761.6a47.573333 47.573333 0 0 1 45.866666 49.152v101.717334a47.573333 47.573333 0 0 1-45.866666 49.152z m-75.733334-141.141334a40.362667 40.362667 0 1 1 0 0.554667z m75.733334-142.848H131.242667a47.573333 47.573333 0 0 1-45.866667-49.152v-101.717333A47.573333 47.573333 0 0 1 131.242667 0h761.6a47.573333 47.573333 0 0 1 45.866666 49.152v102.4a47.530667 47.530667 0 0 1-45.866666 48.469333z m-75.733334-141.141333a40.362667 40.362667 0 1 1 0 0.554667z"  horiz-adv-x="1024" />

    
    <glyph glyph-name="Icon-tianjiafuwu-24" unicode="&#59084;" d="M554.666667-42.666667H128a42.666667 42.666667 0 0 0-42.666667 42.666667v170.666667a42.666667 42.666667 0 0 0 42.666667 42.666666h426.666667v-64H170.666667a21.333333 21.333333 0 0 1-21.333334-21.333333v-85.333333a21.333333 21.333333 0 0 1 21.333334-21.333334h384V-42.666667z m128 298.666667H128a42.666667 42.666667 0 0 0-42.666667 42.666667v170.666666a42.666667 42.666667 0 0 0 42.666667 42.666667h768a42.666667 42.666667 0 0 0 42.666667-42.666667v-128h-64v85.333334a21.333333 21.333333 0 0 1-21.333334 21.333333H170.666667a21.333333 21.333333 0 0 1-21.333334-21.333333v-85.333334a21.333333 21.333333 0 0 1 21.333334-21.333333h512V256z m85.333333 85.333333a42.666667 42.666667 0 1 0 42.666667 42.666667 42.666667 42.666667 0 0 0-42.666667-42.666667z m128 213.333334H128a42.666667 42.666667 0 0 0-42.666667 42.666666V768a42.666667 42.666667 0 0 0 42.666667 42.666667h768a42.666667 42.666667 0 0 0 42.666667-42.666667v-170.666667a42.666667 42.666667 0 0 0-42.666667-42.666666zM170.666667 746.666667a21.333333 21.333333 0 0 1-21.333334-21.333334v-85.333333a21.333333 21.333333 0 0 1 21.333334-21.333333h682.666666a21.333333 21.333333 0 0 1 21.333334 21.333333V725.333333a21.333333 21.333333 0 0 1-21.333334 21.333334zM768 640a42.666667 42.666667 0 1 0 42.666667 42.666667 42.666667 42.666667 0 0 0-42.666667-42.666667zM768-85.333333v128h-128v85.333333h128v128h85.333333v-128h128v-85.333333h-128v-128z"  horiz-adv-x="1024" />

    
    <glyph glyph-name="Icon-StatisticChart-24" unicode="&#59085;" d="M476.458667 739.498667a391.082667 391.082667 0 1 1 391.125333-391.082667h-391.125333V739.498667z m71.125333 71.125333A391.082667 391.082667 0 0 0 938.666667 419.541333h-391.04V810.624z"  horiz-adv-x="1024" />

    
    <glyph glyph-name="Icon-Setting-24" unicode="&#59086;" d="M893.312 474.112h-80.384a314.709333 314.709333 0 0 1-24.704 59.733333l60.629333 60.672a39.125333 39.125333 0 0 1 0 55.722667l-67.797333 67.413333a44.885333 44.885333 0 0 1-63.317333 0l-56.576-56.618666a314.325333 314.325333 0 0 1-59.733334 24.704V771.584A39.082667 39.082667 0 0 1 562.346667 810.666667h-95.658667a44.928 44.928 0 0 1-44.928-44.928v-80a314.325333 314.325333 0 0 1-59.733333-24.704L301.397333 721.706667a39.04 39.04 0 0 1-55.68 0L178.346667 653.866667a44.970667 44.970667 0 0 1 0-63.36l56.576-56.618667a314.581333 314.581333 0 0 1-24.704-59.733333H124.416a39.082667 39.082667 0 0 1-39.082667-39.552v-95.274667A44.928 44.928 0 0 1 130.261333 294.4h79.957334a314.666667 314.666667 0 0 1 24.704-59.733333l-60.629334-60.672a39.125333 39.125333 0 0 1 0-55.722667l67.797334-67.413333a44.885333 44.885333 0 0 1 63.317333 0l57.045333 57.088a314.282667 314.282667 0 0 1 59.733334-24.704v-86.272a39.552 39.552 0 0 1 39.509333-39.552h94.762667a44.928 44.928 0 0 1 44.928 44.928V82.773333a314.325333 314.325333 0 0 1 59.733333 24.704l60.629333-60.842666a39.509333 39.509333 0 0 1 55.68 0l67.370667 67.413333a44.970667 44.970667 0 0 1 0 63.36l-57.045333 57.088a314.624 314.624 0 0 1 25.130666 59.733333h86.229334a39.552 39.552 0 0 1 39.509333 39.082667v95.701333a44.928 44.928 0 0 1-45.354667 44.928z m-381.738667-224.682667a134.826667 134.826667 0 1 0 134.741334 134.826667 134.784 134.784 0 0 0-134.741334-134.826667z"  horiz-adv-x="1024" />

    
    <glyph glyph-name="Icon-xiayiyiceng-24" unicode="&#59087;" d="M810.666667 0H298.666667v121.258667H170.666667V768h554.666666v-121.258667h128V0z m0 606.378667H341.333333v-566.016h469.333334z"  horiz-adv-x="1024" />

    
    <glyph glyph-name="Icon-WorkStation-24" unicode="&#59088;" d="M670.122667-0.042667a135.552 135.552 0 0 0-135.552 135.552v180.736a45.141333 45.141333 0 0 0 45.184 45.141334h180.693333A135.509333 135.509333 0 0 0 896 225.834667v-135.509334a90.325333 90.325333 0 0 0-90.368-90.368z m-451.754667 0A90.368 90.368 0 0 0 128 90.325333v135.509334a135.552 135.552 0 0 0 135.552 135.552h180.693333a45.141333 45.141333 0 0 0 45.184-45.141334v-180.736a135.552 135.552 0 0 0-135.552-135.552z m359.637333 404.608a45.44 45.44 0 0 0-45.44 45.397334V631.68a136.533333 136.533333 0 0 0 136.32 136.277333h136.277334A90.837333 90.837333 0 0 0 896 677.077333v-136.277333a136.277333 136.277333 0 0 0-136.32-136.277333z m-314.496 1.962667A135.552 135.552 0 0 0 128 542.08V677.589333a90.368 90.368 0 0 0 90.368 90.368h135.509333a135.552 135.552 0 0 0 135.552-135.552v-180.693333a45.141333 45.141333 0 0 0-45.184-45.184z"  horiz-adv-x="1024" />

    
    <glyph glyph-name="Icon-Download-24" unicode="&#59089;" d="M800.725333 422.229333l-61.44 65.962667-182.997333-178.304V810.666667h-89.045333v-500.821334L284.245333 488.149333l-61.44-65.962666 288.938667-281.088zM128 48.341333h768v-90.965333H128z"  horiz-adv-x="1024" />

    
    <glyph glyph-name="Icon-Hamburgermenu-24" unicode="&#59090;" d="M128 768m42.666667 0l682.666666 0q42.666667 0 42.666667-42.666667l0 0q0-42.666667-42.666667-42.666666l-682.666666 0q-42.666667 0-42.666667 42.666666l0 0q0 42.666667 42.666667 42.666667ZM128 426.666667m42.666667 0l682.666666 0q42.666667 0 42.666667-42.666667l0 0q0-42.666667-42.666667-42.666667l-682.666666 0q-42.666667 0-42.666667 42.666667l0 0q0 42.666667 42.666667 42.666667ZM128 85.333333m42.666667 0l682.666666 0q42.666667 0 42.666667-42.666666l0 0q0-42.666667-42.666667-42.666667l-682.666666 0q-42.666667 0-42.666667 42.666667l0 0q0 42.666667 42.666667 42.666666Z"  horiz-adv-x="1024" />

    
    <glyph glyph-name="Icon-Camera-24" unicode="&#59091;" d="M938.666667 414.464l-84.949334 51.2h-2.773333l-67.328 40.192-429.226667 256.853333a37.461333 37.461333 0 0 1-52.010666-14.336L214.186667 591.402667a40.277333 40.277333 0 0 1-3.84-30.165334 39.082667 39.082667 0 0 1 18.218666-23.936l221.44-131.584-106.666666-220.586666H171.093333v95.701333a31.061333 31.061333 0 0 1-30.634666 30.165333h-24.618667a31.104 31.104 0 0 1-30.634667-31.573333v-247.850667a31.104 31.104 0 0 1 30.634667-31.573333h24.618667a31.104 31.104 0 0 1 30.634666 31.573333v79.957334h215.893334l124.885333 257.450666 212.650667-128.256a37.205333 37.205333 0 0 1 46.421333 4.778667z"  horiz-adv-x="1024" />

    


  </font>
</defs>
</svg>
